# Blender v2.90.0 OBJ File: 'kAMER.blend'
# www.blender.org
mtllib boek !!!!!!!!!!!!!!!!!!!!!!!!!!!.mtl
o Cube.009_Cube.013
v -4.177343 0.201522 -4.737907
v -4.174880 0.200216 -4.909218
v -4.175931 1.503107 -4.750526
v -4.160726 1.504452 -4.921092
v -5.022985 0.206040 -4.750100
v -5.020522 0.204734 -4.921411
v -5.017187 1.489042 -4.759801
v -5.014723 1.487736 -4.931112
v -4.178322 0.201267 -4.713117
v -4.178368 1.513664 -4.725970
v -4.112200 0.188032 -4.718287
v -4.115412 1.488958 -4.725545
v -4.142610 0.187949 -4.927786
v -4.129540 0.257365 -4.941999
v -4.123223 0.180605 -4.927195
v -4.118760 0.179622 -4.927109
v -4.124255 1.426749 -4.950841
v -4.125702 1.496607 -4.936851
v -4.101257 1.490793 -4.934152
v -4.105525 1.492366 -4.934614
v -4.976540 1.430508 -4.963123
v -5.033333 1.516122 -4.950721
v -4.981824 0.261123 -4.954282
v -5.039388 0.176224 -4.940590
v -4.143235 1.501666 -4.724355
v -4.137989 1.461312 -4.716380
v -4.125299 1.495532 -4.721768
v -4.174085 1.512706 -4.724909
v -4.143569 0.226476 -4.707043
v -4.149469 0.191013 -4.714449
v -4.123715 0.187830 -4.713531
v -5.034163 1.514369 -4.737261
v -5.001640 1.465121 -4.728826
v -5.040188 0.181212 -4.727181
v -5.007220 0.230285 -4.719489
v -4.165719 0.192902 -4.823352
v -4.168329 1.503780 -4.835809
v -5.021098 1.504239 -4.845651
v -5.027003 0.197504 -4.835771
v -4.170273 0.196539 -4.866285
v -4.164527 1.504116 -4.878450
v -5.017924 1.496028 -4.888382
v -5.023776 0.201099 -4.878591
v -4.172130 1.503443 -4.793167
v -5.011312 1.472506 -4.802429
v -5.017000 0.213776 -4.792912
v -4.187356 0.209343 -4.780950
v -4.186178 0.208803 -4.888027
v -4.162627 1.504284 -4.899771
v -5.009593 1.471138 -4.909492
v -5.015278 0.213233 -4.899981
v -4.166428 1.503948 -4.857130
v -5.010835 1.473395 -4.866688
v -5.016533 0.212600 -4.857155
v -4.185528 0.208160 -4.845173
v -4.192888 0.213656 -4.802482
v -4.170229 1.503612 -4.814488
v -5.008114 1.463436 -4.823734
v -5.013741 0.218042 -4.814317
v -4.174031 1.503275 -4.771846
v -5.021210 1.502228 -4.781379
v -5.027098 0.199238 -4.771527
v -4.168283 0.194649 -4.759144
v -4.169547 1.509058 -4.823531
v -4.176601 0.200742 -4.811168
v -4.165137 1.506755 -4.872311
v -4.175741 0.200479 -4.860193
v -4.159628 1.497337 -4.937369
v -4.158543 1.426900 -4.951335
v -4.163610 0.257515 -4.942490
v -4.179423 0.187468 -4.928312
v -4.175107 0.200285 -4.896266
v -4.173505 0.199693 -4.910009
v -4.168313 0.191288 -4.923119
vt 0.593750 0.000000
vt 0.625000 0.250000
vt 0.593750 0.250000
vt 0.593750 0.500000
vt 0.625000 0.750000
vt 0.593750 0.750000
vt 0.593750 1.000000
vt 0.375000 1.000000
vt 0.375000 0.750000
vt 0.375000 0.750000
vt 0.625000 1.000000
vt 0.625000 1.000000
vt 0.375000 0.010641
vt 0.375000 -0.003110
vt 0.375000 0.000000
vt 0.375000 0.500000
vt 0.375000 0.500000
vt 0.625000 0.250000
vt 0.625000 0.250000
vt 0.625000 0.250000
vt 0.375000 0.250000
vt 0.375000 0.250000
vt 0.364359 0.510641
vt 0.125000 0.739359
vt 0.125000 0.510641
vt 0.000000 0.000000
vt 0.000000 0.000000
vt 0.000000 0.000000
vt 0.625000 0.000000
vt 0.625000 0.000000
vt 0.625000 0.500000
vt 0.625000 0.259345
vt 0.625000 0.500000
vt 0.865714 0.519167
vt 0.644167 0.730833
vt 0.644167 0.519167
vt 0.000000 0.000000
vt 0.013778 0.055111
vt 0.625000 0.750000
vt 0.625000 1.000000
vt 0.625000 1.000000
vt 0.625000 1.000000
vt 0.625000 1.000000
vt 0.625000 0.250000
vt 0.625000 0.250000
vt 0.625000 0.250000
vt 0.625000 0.259286
vt 0.625000 0.250000
vt 0.625000 0.769167
vt 0.625000 0.989737
vt 0.875000 0.750000
vt 0.875000 0.749386
vt 0.875000 0.500000
vt 0.126535 0.501535
vt 0.125000 0.500000
vt 0.130687 0.500000
vt 0.125000 0.748465
vt 0.125000 0.750000
vt 0.126535 0.500000
vt 0.373465 0.500000
vt 0.364359 0.739359
vt 0.126535 0.750000
vt 0.500000 0.750000
vt 0.468750 1.000000
vt 0.468750 0.750000
vt 0.468750 0.500000
vt 0.500000 0.250000
vt 0.468750 0.250000
vt 0.468750 0.000000
vt 0.562500 0.750000
vt 0.531250 1.000000
vt 0.531250 0.750000
vt 0.531250 0.500000
vt 0.562500 0.250000
vt 0.531250 0.250000
vt 0.531250 0.000000
vt 0.437500 0.000000
vt 0.406250 0.250000
vt 0.406250 0.000000
vt 0.437500 0.500000
vt 0.406250 0.500000
vt 0.406250 0.750000
vt 0.437500 1.000000
vt 0.406250 1.000000
vt 0.562500 1.000000
vt 0.562500 0.500000
vt 0.562500 0.000000
vt 0.500000 0.000000
vt 0.500000 0.500000
vt 0.500000 1.000000
vt 0.437500 0.250000
vt 0.437500 0.750000
vt 0.375000 0.000000
vt 0.625000 0.000000
vt 0.625000 0.250000
vt 0.625000 0.000000
vt 0.625000 0.480833
vt 0.865773 0.730833
vt 0.875000 0.519167
vt 0.875000 0.730833
vt 0.625000 0.990773
vt 0.625000 0.995141
vt 0.625000 1.000000
vt 0.625000 1.000000
vt 0.625000 0.000000
vt 0.375000 1.000000
vt 0.375000 0.239359
vt 0.000000 0.000000
vt 0.000000 0.000000
vt 0.000000 0.000000
vt 0.625000 0.000000
vt 0.419805 0.352597
vt 0.000000 0.000000
vt 0.581790 0.232716
vt 0.625000 1.000000
vt 0.875000 0.750000
vt 0.875000 0.500614
vt 0.875000 0.500000
vt 0.373465 0.750000
vt 0.419805 0.307792
vt 0.625000 1.000000
vt 0.625000 1.000000
vn 0.9959 -0.0173 0.0886
vn -0.0392 0.9992 0.0044
vn -0.9719 0.0062 0.2354
vn -0.0103 -0.9286 0.3708
vn 0.0069 -0.6808 -0.7324
vn -0.0122 -0.8439 0.5364
vn 0.0589 0.1947 -0.9791
vn -0.7993 -0.0009 -0.6009
vn 0.3654 0.9308 -0.0109
vn 0.0137 0.9992 0.0379
vn -0.0144 0.0076 0.9999
vn -0.2158 -0.9753 0.0461
vn -0.0029 0.0098 0.9999
vn -0.9959 0.0045 -0.0903
vn -0.0004 0.5682 0.8229
vn 0.0144 -0.0076 -0.9999
vn 0.3091 0.7789 -0.5457
vn -0.7192 0.0085 0.6948
vn -0.3559 -0.9345 -0.0012
vn -0.0039 0.0716 0.9974
vn -0.1744 -0.1892 0.9663
vn 0.0150 0.1966 -0.9804
vn -0.2225 -0.0064 -0.9749
vn 0.0163 -0.1699 -0.9853
vn 0.9985 -0.0170 -0.0521
vn -0.3365 -0.9344 0.1171
vn -0.0589 -0.1947 0.9791
vn -0.0120 0.1611 0.9869
vn -0.2391 0.0084 0.9710
vn -0.0150 -0.2020 0.9793
vn -0.3706 -0.0053 -0.9288
vn -0.0139 -0.7180 0.6959
vn -0.8539 0.0078 0.5204
vn -0.0479 0.9988 0.0036
vn 0.9959 -0.0167 0.0887
vn -0.0116 -0.8795 0.4758
vn -0.9485 0.0067 0.3169
vn -0.0362 0.9993 0.0047
vn 0.9960 -0.0139 0.0887
vn 0.7516 -0.0031 -0.6596
vn 0.0085 0.5798 -0.8147
vn -0.9045 0.0009 -0.4265
vn 0.0037 -0.8278 -0.5610
vn 0.0025 -0.8702 -0.4927
vn -0.9296 0.0014 -0.3685
vn 0.0027 0.6474 -0.7622
vn 0.8046 -0.0091 -0.5937
vn 0.7387 -0.0049 -0.6740
vn 0.0098 0.5657 -0.8246
vn -0.8983 0.0007 -0.4393
vn 0.0039 -0.8178 -0.5754
vn 0.9678 -0.0138 -0.2514
vn -0.0295 0.9181 -0.3953
vn -0.9887 0.0033 -0.1498
vn -0.0024 -0.9806 -0.1958
vn -0.0095 -0.9526 0.3042
vn -0.9824 0.0059 0.1867
vn -0.0200 0.8515 0.5240
vn 0.9961 -0.0002 0.0888
vn -0.9959 0.0072 -0.0904
vn -0.9998 0.0080 -0.0176
vn 0.0258 0.9166 -0.3990
vn 0.0184 0.1553 -0.9877
vn 0.0166 -0.2020 -0.9793
vn 0.0021 -0.8077 0.5896
vn -0.0122 -0.8440 0.5363
vn -0.3448 -0.9387 -0.0010
vn 0.8815 -0.0053 0.4721
vn -0.0227 0.7904 0.6122
vn 0.0160 -0.9052 -0.4246
vn 0.6539 0.0489 -0.7550
vn 0.6641 -0.0080 -0.7476
vn 0.6780 -0.0086 -0.7350
vn 0.6212 -0.0734 -0.7802
vn -0.7992 -0.0009 -0.6010
vn 0.3016 0.9530 0.0288
vn 0.2288 0.9732 0.0241
vn 0.2183 0.9755 -0.0263
vn -0.0028 0.6637 -0.7480
vn -0.2159 -0.9753 0.0461
vn -0.1066 -0.9485 -0.2983
vn 0.0791 0.0058 0.9969
vn -0.9998 -0.0002 -0.0175
vn -0.0132 0.9159 -0.4013
vn 0.3094 0.7788 -0.5457
vn 0.2184 0.9756 0.0234
vn 0.3378 0.9383 0.0745
vn 0.3453 0.8741 -0.3415
vn -0.0430 -0.1926 -0.9803
vn 0.1538 0.1971 -0.9682
vn 0.0192 0.1947 -0.9807
vn 0.0132 -0.2012 -0.9795
vn 0.2158 0.9754 -0.0461
vn 0.8841 -0.0173 -0.4670
vn 0.6032 -0.0088 -0.7976
vn 0.1744 0.1892 -0.9663
vn 0.9977 0.0028 0.0677
vn -0.0786 0.1834 0.9799
vn -0.0133 0.1922 0.9813
vn -0.0125 -0.1466 0.9891
vn -0.3637 -0.0118 -0.9314
vn -0.3440 -0.0061 -0.9389
vn -0.3809 -0.0405 -0.9237
vn -0.0099 0.4707 0.8822
vn 0.6133 0.0087 0.7898
vn -0.9484 0.0067 0.3169
vn -0.0150 0.6895 0.7242
vn 0.8110 0.0019 0.5850
vn 0.9960 -0.0109 0.0887
vn -0.0369 0.9993 0.0046
vn -0.0362 0.9993 0.0046
vn 0.9959 -0.0167 0.0886
vn -0.0095 -0.9525 0.3042
vn -0.0013 1.0000 0.0078
vn 0.9207 0.0078 0.3903
vn -0.9998 0.0052 -0.0176
vn -0.9959 0.0093 -0.0905
vn -0.9998 0.0107 -0.0176
vn 0.0150 0.1947 -0.9808
vn 0.0132 -0.2030 -0.9791
vn 0.0311 -0.8358 0.5482
vn -0.0125 -0.8296 0.5582
vn -0.0046 -0.5561 0.8311
vn -0.3441 -0.9389 0.0003
vn -0.3305 -0.9426 0.0483
vn -0.2582 -0.9650 0.0470
vn -0.1961 -0.9806 0.0018
g Cube.009_Cube.013_Boek_2
usemtl Boek_2
s off
f 48/1/1 4/2/1 49/3/1
g Cube.009_Cube.013_Boek_1
usemtl Boek_1
f 4/2/2 50/4/2 49/3/2
f 50/4/3 6/5/3 51/6/3
f 6/5/4 48/7/4 51/6/4
g Cube.009_Cube.013_Boek_2
usemtl Boek_2
f 1/8/5 34/9/5 5/10/5
f 2/11/6 6/5/6 73/12/6
f 29/13/7 31/14/7 30/15/7
f 5/10/8 32/16/8 7/17/8
f 64/18/9 10/19/9 12/20/9
g Cube.009_Cube.013_Boek_1
usemtl Boek_1
f 3/21/10 32/16/10 25/22/10
g Cube.009_Cube.013_Boek_2
usemtl Boek_2
f 33/23/11 29/24/11 26/25/11
f 1/26/12 15/27/12 16/28/12
f 9/29/13 12/20/13 10/19/13
f 65/30/14 10/19/14 64/18/14
f 8/31/15 68/32/15 22/33/15
f 69/34/16 23/35/16 21/36/16
f 10/37/17 28/38/17 12/20/17
f 8/31/18 24/39/18 6/5/18
f 2/11/19 73/12/19 72/40/19
f 13/41/20 15/42/20 16/43/20
f 17/44/21 19/45/21 20/46/21
f 69/47/22 18/48/22 17/44/22
f 23/35/23 22/33/23 21/36/23
f 23/49/24 71/50/24 24/39/24
f 11/51/25 15/52/25 19/53/25
f 25/54/26 27/55/26 28/56/26
f 29/24/27 30/57/27 31/58/27
f 33/23/28 25/59/28 32/60/28
f 33/23/29 34/9/29 35/61/29
f 35/61/30 30/62/30 29/24/30
f 29/24/31 26/25/31 12/20/31
g Cube.009_Cube.013_Boek_1
usemtl Boek_1
f 39/63/32 56/64/32 59/65/32
f 58/66/33 39/63/33 59/65/33
f 37/67/34 58/66/34 57/68/34
g Cube.009_Cube.013_Boek_2
usemtl Boek_2
f 56/69/35 37/67/35 57/68/35
g Cube.009_Cube.013_Boek_1
usemtl Boek_1
f 43/70/36 55/71/36 54/72/36
f 53/73/37 43/70/37 54/72/37
f 41/74/38 53/73/38 52/75/38
g Cube.009_Cube.013_Boek_2
usemtl Boek_2
f 55/76/39 41/74/39 52/75/39
f 47/77/40 60/78/40 63/79/40
g Cube.009_Cube.013_Boek_1
usemtl Boek_1
f 60/78/41 45/80/41 61/81/41
f 45/80/42 62/82/42 61/81/42
f 62/82/43 47/83/43 63/84/43
f 43/70/44 48/7/44 40/85/44
f 50/4/45 43/70/45 42/86/45
f 41/74/46 50/4/46 42/86/46
g Cube.009_Cube.013_Boek_2
usemtl Boek_2
f 48/1/47 41/74/47 40/87/47
f 55/76/48 37/67/48 36/88/48
g Cube.009_Cube.013_Boek_1
usemtl Boek_1
f 37/67/49 53/73/49 38/89/49
f 53/73/50 39/63/50 38/89/50
f 39/63/51 55/71/51 36/90/51
g Cube.009_Cube.013_Boek_2
usemtl Boek_2
f 56/69/52 44/91/52 47/77/52
g Cube.009_Cube.013_Boek_1
usemtl Boek_1
f 44/91/53 58/66/53 45/80/53
f 58/66/54 46/92/54 45/80/54
f 46/92/55 56/64/55 47/83/55
f 62/82/56 1/8/56 5/10/56
f 7/17/57 62/82/57 5/10/57
f 3/21/58 61/81/58 7/17/58
g Cube.009_Cube.013_Boek_2
usemtl Boek_2
f 1/93/59 60/78/59 3/21/59
f 67/94/60 64/18/60 66/95/60
f 72/96/61 67/94/61 66/95/61
f 68/32/62 4/2/62 18/48/62
f 68/32/63 21/97/63 22/33/63
f 70/98/16 17/99/16 14/100/16
f 70/101/64 13/41/64 71/50/64
f 71/50/65 13/41/65 74/102/65
f 74/102/66 13/41/66 73/12/66
f 16/43/67 65/103/67 67/104/67
f 48/1/68 2/105/68 4/2/68
g Cube.009_Cube.013_Boek_1
usemtl Boek_1
f 4/2/69 8/31/69 50/4/69
f 50/4/3 8/31/3 6/5/3
f 6/5/4 2/11/4 48/7/4
g Cube.009_Cube.013_Boek_2
usemtl Boek_2
f 1/8/70 30/106/70 34/9/70
f 30/15/71 1/93/71 29/13/71
f 1/93/72 3/21/72 26/107/72
f 29/13/73 1/93/73 26/107/73
f 3/21/74 25/22/74 26/107/74
f 5/10/75 34/9/75 32/16/75
f 12/20/76 19/45/76 64/18/76
f 19/45/77 18/48/77 4/2/77
f 66/95/78 19/45/78 4/2/78
f 66/95/78 64/18/78 19/45/78
g Cube.009_Cube.013_Boek_1
usemtl Boek_1
f 3/21/79 7/17/79 32/16/79
g Cube.009_Cube.013_Boek_2
usemtl Boek_2
f 33/23/11 35/61/11 29/24/11
f 16/28/80 11/108/80 1/26/80
f 11/108/81 31/109/81 30/110/81
f 1/26/81 11/108/81 30/110/81
f 9/29/82 11/111/82 12/20/82
f 65/30/83 9/29/83 10/19/83
f 8/31/84 4/2/84 68/32/84
f 69/34/16 70/98/16 23/35/16
f 27/112/85 12/20/85 28/38/85
f 12/20/86 19/45/86 3/113/86
f 19/45/87 20/114/87 3/113/87
f 3/113/88 10/37/88 12/20/88
f 8/31/18 22/33/18 24/39/18
f 13/41/89 14/115/89 15/42/89
f 17/44/90 18/48/90 19/45/90
f 69/47/91 68/32/91 18/48/91
f 23/35/23 24/39/23 22/33/23
f 23/49/92 70/101/92 71/50/92
f 11/51/93 16/116/93 15/52/93
f 15/52/94 14/100/94 19/53/94
f 14/100/95 17/99/95 19/53/95
f 17/99/96 20/117/96 19/53/96
f 19/53/97 12/118/97 11/51/97
f 25/54/98 26/25/98 27/55/98
f 33/23/99 26/25/99 25/59/99
f 33/23/29 32/16/29 34/9/29
f 35/61/100 34/119/100 30/62/100
f 27/112/101 12/20/101 26/25/101
f 12/20/102 11/111/102 29/24/102
f 11/111/103 31/120/103 29/24/103
g Cube.009_Cube.013_Boek_1
usemtl Boek_1
f 39/63/32 36/90/32 56/64/32
f 58/66/33 38/89/33 39/63/33
f 37/67/104 38/89/104 58/66/104
g Cube.009_Cube.013_Boek_2
usemtl Boek_2
f 56/69/105 36/88/105 37/67/105
g Cube.009_Cube.013_Boek_1
usemtl Boek_1
f 43/70/36 40/85/36 55/71/36
f 53/73/106 42/86/106 43/70/106
f 41/74/107 42/86/107 53/73/107
g Cube.009_Cube.013_Boek_2
usemtl Boek_2
f 55/76/108 40/87/108 41/74/108
f 47/77/109 44/91/109 60/78/109
g Cube.009_Cube.013_Boek_1
usemtl Boek_1
f 60/78/110 44/91/110 45/80/110
f 45/80/42 46/92/42 62/82/42
f 62/82/43 46/92/43 47/83/43
f 43/70/44 51/6/44 48/7/44
f 50/4/45 51/6/45 43/70/45
f 41/74/2 49/3/2 50/4/2
g Cube.009_Cube.013_Boek_2
usemtl Boek_2
f 48/1/1 49/3/1 41/74/1
f 55/76/39 52/75/39 37/67/39
g Cube.009_Cube.013_Boek_1
usemtl Boek_1
f 37/67/111 52/75/111 53/73/111
f 53/73/50 54/72/50 39/63/50
f 39/63/51 54/72/51 55/71/51
g Cube.009_Cube.013_Boek_2
usemtl Boek_2
f 56/69/112 57/68/112 44/91/112
g Cube.009_Cube.013_Boek_1
usemtl Boek_1
f 44/91/34 57/68/34 58/66/34
f 58/66/54 59/65/54 46/92/54
f 46/92/55 59/65/55 56/64/55
f 62/82/113 63/84/113 1/8/113
f 7/17/57 61/81/57 62/82/57
f 3/21/114 60/78/114 61/81/114
g Cube.009_Cube.013_Boek_2
usemtl Boek_2
f 1/93/115 63/79/115 60/78/115
f 67/94/116 65/30/116 64/18/116
f 66/95/117 4/2/117 72/96/117
f 4/2/118 2/105/118 72/96/118
f 68/32/119 69/47/119 21/97/119
f 70/98/16 69/34/16 17/99/16
f 70/101/120 14/115/120 13/41/120
f 74/102/121 73/12/121 71/50/121
f 73/12/122 6/5/122 71/50/122
f 6/5/123 24/39/123 71/50/123
f 67/104/67 72/40/67 16/43/67
f 72/40/124 73/12/124 16/43/124
f 73/12/125 13/41/125 16/43/125
f 16/43/126 11/121/126 65/103/126
f 11/121/127 9/122/127 65/103/127
