# Blender v2.90.0 OBJ File: 'kAMER.blend'
# www.blender.org
mtllib glas.mtl
o Cylinder.003_Cylinder.004
v -3.222572 0.763091 -6.379234
v -3.222572 1.042316 -6.401188
v -3.206593 0.763091 -6.377660
v -3.202310 1.042316 -6.399192
v -3.191228 0.763091 -6.372999
v -3.182827 1.042316 -6.393282
v -3.177068 0.763091 -6.365430
v -3.164871 1.042316 -6.383685
v -3.164656 0.763091 -6.355244
v -3.149132 1.042316 -6.370768
v -3.154470 0.763091 -6.342833
v -3.136216 1.042316 -6.355030
v -3.146901 0.763091 -6.328672
v -3.126618 1.042316 -6.337073
v -3.142240 0.763091 -6.313307
v -3.120708 1.042316 -6.317590
v -3.140666 0.763091 -6.297328
v -3.118712 1.042316 -6.297328
v -3.142240 0.763091 -6.281349
v -3.120708 1.042316 -6.277066
v -3.146901 0.763091 -6.265984
v -3.126618 1.042316 -6.257583
v -3.154470 0.763091 -6.251823
v -3.136216 1.042316 -6.239626
v -3.164656 0.763091 -6.239412
v -3.149132 1.042316 -6.223888
v -3.177068 0.763091 -6.229226
v -3.164871 1.042316 -6.210971
v -3.191228 0.763091 -6.221657
v -3.182827 1.042316 -6.201374
v -3.206593 0.763091 -6.216996
v -3.202310 1.042316 -6.195464
v -3.222572 0.763091 -6.215422
v -3.222572 1.042316 -6.193468
v -3.238551 0.763091 -6.216996
v -3.242835 1.042316 -6.195464
v -3.253916 0.763091 -6.221657
v -3.262318 1.042316 -6.201374
v -3.268077 0.763091 -6.229226
v -3.280274 1.042316 -6.210971
v -3.280488 0.763091 -6.239412
v -3.296013 1.042316 -6.223888
v -3.290675 0.763091 -6.251823
v -3.308929 1.042316 -6.239626
v -3.298244 0.763091 -6.265984
v -3.318527 1.042316 -6.257583
v -3.302904 0.763091 -6.281349
v -3.324437 1.042316 -6.277066
v -3.304478 0.763091 -6.297328
v -3.326432 1.042316 -6.297328
v -3.302904 0.763091 -6.313307
v -3.324437 1.042316 -6.317590
v -3.298244 0.763091 -6.328672
v -3.318527 1.042316 -6.337074
v -3.290674 0.763091 -6.342833
v -3.308929 1.042316 -6.355030
v -3.280488 0.763091 -6.355244
v -3.296012 1.042316 -6.370768
v -3.268077 0.763091 -6.365430
v -3.280274 1.042316 -6.383685
v -3.253916 0.763091 -6.372999
v -3.262318 1.042316 -6.393282
v -3.238551 0.763091 -6.377660
v -3.242834 1.042316 -6.399192
v -3.199466 1.042316 -6.413493
v -3.222572 1.042316 -6.415769
v -3.177247 1.042316 -6.406753
v -3.156770 1.042316 -6.395808
v -3.138822 1.042316 -6.381078
v -3.124092 1.042316 -6.363130
v -3.113147 1.042316 -6.342653
v -3.106407 1.042316 -6.320435
v -3.104131 1.042316 -6.297328
v -3.106407 1.042316 -6.274221
v -3.113147 1.042316 -6.252003
v -3.124092 1.042316 -6.231526
v -3.138822 1.042316 -6.213578
v -3.156770 1.042316 -6.198848
v -3.177247 1.042316 -6.187903
v -3.199466 1.042316 -6.181163
v -3.222572 1.042316 -6.178887
v -3.245679 1.042316 -6.181163
v -3.267898 1.042316 -6.187903
v -3.288375 1.042316 -6.198848
v -3.306323 1.042316 -6.213578
v -3.321052 1.042316 -6.231526
v -3.331998 1.042316 -6.252003
v -3.338737 1.042316 -6.274221
v -3.341013 1.042316 -6.297328
v -3.338737 1.042316 -6.320435
v -3.331997 1.042316 -6.342653
v -3.321052 1.042316 -6.363131
v -3.306323 1.042316 -6.381078
v -3.288374 1.042316 -6.395808
v -3.267898 1.042316 -6.406753
v -3.245679 1.042316 -6.413493
v -3.206873 0.773293 -6.376256
v -3.222572 0.773293 -6.377802
v -3.191776 0.773293 -6.371676
v -3.177863 0.773293 -6.364240
v -3.165669 0.773293 -6.354232
v -3.155661 0.773293 -6.342037
v -3.148224 0.773293 -6.328124
v -3.143645 0.773293 -6.313028
v -3.142098 0.773293 -6.297328
v -3.143645 0.773293 -6.281629
v -3.148224 0.773293 -6.266532
v -3.155661 0.773293 -6.252619
v -3.165669 0.773293 -6.240424
v -3.177863 0.773293 -6.230416
v -3.191776 0.773293 -6.222980
v -3.206873 0.773293 -6.218400
v -3.222572 0.773293 -6.216854
v -3.238272 0.773293 -6.218400
v -3.253368 0.773293 -6.222980
v -3.267281 0.773293 -6.230416
v -3.279476 0.773293 -6.240425
v -3.289484 0.773293 -6.252619
v -3.296921 0.773293 -6.266532
v -3.301500 0.773293 -6.281629
v -3.303046 0.773293 -6.297328
v -3.301500 0.773293 -6.313028
v -3.296921 0.773293 -6.328124
v -3.289484 0.773293 -6.342037
v -3.279476 0.773293 -6.354232
v -3.267281 0.773293 -6.364240
v -3.253368 0.773293 -6.371676
v -3.238272 0.773293 -6.376256
vt 1.000000 1.000000
vt 0.968750 0.500000
vt 1.000000 0.500000
vt 0.968750 1.000000
vt 0.937500 0.500000
vt 0.937500 1.000000
vt 0.906250 0.500000
vt 0.906250 1.000000
vt 0.875000 0.500000
vt 0.875000 1.000000
vt 0.843750 0.500000
vt 0.843750 1.000000
vt 0.812500 0.500000
vt 0.812500 1.000000
vt 0.781250 0.500000
vt 0.781250 1.000000
vt 0.750000 0.500000
vt 0.750000 1.000000
vt 0.718750 0.500000
vt 0.718750 1.000000
vt 0.687500 0.500000
vt 0.687500 1.000000
vt 0.656250 0.500000
vt 0.656250 1.000000
vt 0.625000 0.500000
vt 0.625000 1.000000
vt 0.593750 0.500000
vt 0.593750 1.000000
vt 0.562500 0.500000
vt 0.562500 1.000000
vt 0.531250 0.500000
vt 0.531250 1.000000
vt 0.500000 0.500000
vt 0.500000 1.000000
vt 0.468750 0.500000
vt 0.468750 1.000000
vt 0.437500 0.500000
vt 0.437500 1.000000
vt 0.406250 0.500000
vt 0.406250 1.000000
vt 0.375000 0.500000
vt 0.375000 1.000000
vt 0.343750 0.500000
vt 0.343750 1.000000
vt 0.312500 0.500000
vt 0.312500 1.000000
vt 0.281250 0.500000
vt 0.281250 1.000000
vt 0.250000 0.500000
vt 0.250000 1.000000
vt 0.218750 0.500000
vt 0.218750 1.000000
vt 0.187500 0.500000
vt 0.187500 1.000000
vt 0.156250 0.500000
vt 0.156250 1.000000
vt 0.125000 0.500000
vt 0.125000 1.000000
vt 0.093750 0.500000
vt 0.062500 1.000000
vt 0.062500 0.500000
vt 0.398814 0.101186
vt 0.366922 0.075013
vt 0.366922 0.075013
vt 0.031250 0.500000
vt 0.031250 1.000000
vt 0.000000 0.500000
vt 0.985388 0.296822
vt 0.796822 0.014612
vt 0.514611 0.203179
vt 0.291058 0.456411
vt 0.250000 0.490000
vt 0.250000 0.460455
vt 0.341844 0.471731
vt 0.296822 0.485388
vt 0.366922 0.424987
vt 0.330537 0.444435
vt 0.419706 0.419706
vt 0.383337 0.449553
vt 0.424987 0.366922
vt 0.398814 0.398814
vt 0.471731 0.341844
vt 0.449553 0.383337
vt 0.456411 0.291058
vt 0.444435 0.330537
vt 0.460455 0.250000
vt 0.485388 0.296822
vt 0.456411 0.208942
vt 0.490000 0.250000
vt 0.471731 0.158156
vt 0.485388 0.203178
vt 0.424987 0.133078
vt 0.444435 0.169463
vt 0.449553 0.116663
vt 0.419706 0.080294
vt 0.330537 0.055565
vt 0.383337 0.050447
vt 0.296822 0.014612
vt 0.341844 0.028269
vt 0.250000 0.039545
vt 0.291058 0.043589
vt 0.208942 0.043589
vt 0.250000 0.010000
vt 0.158156 0.028269
vt 0.203178 0.014612
vt 0.169462 0.055565
vt 0.116663 0.050447
vt 0.101186 0.101186
vt 0.133078 0.075014
vt 0.075013 0.133078
vt 0.080294 0.080294
vt 0.028269 0.158156
vt 0.050447 0.116663
vt 0.043589 0.208943
vt 0.055565 0.169463
vt 0.039545 0.250000
vt 0.014611 0.203179
vt 0.014612 0.296822
vt 0.010000 0.250000
vt 0.055565 0.330538
vt 0.043589 0.291058
vt 0.075014 0.366923
vt 0.028269 0.341844
vt 0.101186 0.398814
vt 0.050447 0.383337
vt 0.116663 0.449553
vt 0.080295 0.419706
vt 0.169463 0.444435
vt 0.133078 0.424987
vt 0.203179 0.485389
vt 0.158156 0.471731
vt 0.208943 0.456411
vt 0.169462 0.055565
vt 0.444435 0.169463
vt 0.330537 0.444435
vt 0.075014 0.366923
vt 0.330537 0.055565
vt 0.250000 0.460455
vt 0.291058 0.456411
vt 0.101186 0.398814
vt 0.291058 0.043589
vt 0.133078 0.424987
vt 0.250000 0.039545
vt 0.366922 0.424987
vt 0.169463 0.444435
vt 0.208942 0.043589
vt 0.398814 0.398814
vt 0.208943 0.456411
vt 0.424987 0.366922
vt 0.133078 0.075014
vt 0.444435 0.330537
vt 0.101186 0.101186
vt 0.456411 0.291058
vt 0.075013 0.133078
vt 0.460455 0.250000
vt 0.055565 0.169463
vt 0.456411 0.208942
vt 0.043589 0.208943
vt 0.039545 0.250000
vt 0.424987 0.133078
vt 0.043589 0.291058
vt 0.398814 0.101186
vt 0.055565 0.330538
vt 0.093750 1.000000
vt 0.000000 1.000000
vt 0.703179 0.485389
vt 0.750000 0.490000
vt 0.796822 0.485388
vt 0.841844 0.471731
vt 0.883337 0.449553
vt 0.919706 0.419706
vt 0.949553 0.383337
vt 0.971731 0.341844
vt 0.990000 0.250000
vt 0.985388 0.203178
vt 0.971731 0.158156
vt 0.949553 0.116663
vt 0.919706 0.080294
vt 0.883337 0.050447
vt 0.841844 0.028269
vt 0.750000 0.010000
vt 0.703178 0.014612
vt 0.658156 0.028269
vt 0.616663 0.050447
vt 0.580294 0.080294
vt 0.550447 0.116663
vt 0.528269 0.158156
vt 0.510000 0.250000
vt 0.514612 0.296822
vt 0.528269 0.341844
vt 0.550447 0.383337
vt 0.580295 0.419706
vt 0.616663 0.449553
vt 0.658156 0.471731
vn 0.0000 0.6372 -0.7707
vn 0.1330 -0.7316 -0.6686
vn 0.0000 -0.7316 -0.6817
vn 0.1503 0.6372 -0.7558
vn 0.2609 -0.7316 -0.6298
vn 0.2949 0.6373 -0.7120
vn 0.3787 -0.7316 -0.5668
vn 0.4281 0.6372 -0.6407
vn 0.4820 -0.7316 -0.4820
vn 0.5449 0.6372 -0.5449
vn 0.5668 -0.7316 -0.3787
vn 0.6408 0.6372 -0.4281
vn 0.6298 -0.7316 -0.2609
vn 0.7120 0.6372 -0.2949
vn 0.6686 -0.7316 -0.1330
vn 0.7558 0.6372 -0.1503
vn 0.6817 -0.7316 0.0000
vn 0.7707 0.6372 0.0000
vn 0.6686 -0.7316 0.1330
vn 0.7558 0.6372 0.1503
vn 0.6298 -0.7316 0.2609
vn 0.7120 0.6372 0.2949
vn 0.5668 -0.7316 0.3787
vn 0.6408 0.6372 0.4281
vn 0.4820 -0.7316 0.4820
vn 0.5449 0.6372 0.5449
vn 0.3787 -0.7316 0.5668
vn 0.4281 0.6372 0.6408
vn 0.2608 -0.7316 0.6298
vn 0.2949 0.6372 0.7120
vn 0.1329 -0.7316 0.6686
vn 0.1503 0.6372 0.7558
vn 0.0000 -0.7316 0.6817
vn 0.0000 0.6372 0.7707
vn -0.1330 -0.7316 0.6686
vn -0.1503 0.6372 0.7558
vn -0.2609 -0.7316 0.6298
vn -0.2949 0.6372 0.7120
vn -0.3787 -0.7316 0.5668
vn -0.4281 0.6372 0.6408
vn -0.4820 -0.7316 0.4820
vn -0.5449 0.6372 0.5449
vn -0.5668 -0.7316 0.3787
vn -0.6408 0.6372 0.4281
vn -0.6298 -0.7316 0.2608
vn -0.7120 0.6372 0.2949
vn -0.6686 -0.7316 0.1330
vn -0.7558 0.6372 0.1503
vn -0.6817 -0.7316 0.0000
vn -0.7707 0.6372 0.0000
vn -0.6686 -0.7316 -0.1330
vn -0.7558 0.6372 -0.1503
vn -0.6298 -0.7316 -0.2609
vn -0.7120 0.6372 -0.2949
vn -0.5668 -0.7316 -0.3787
vn -0.6408 0.6372 -0.4281
vn -0.4820 -0.7316 -0.4820
vn -0.5449 0.6372 -0.5449
vn -0.3787 -0.7316 -0.5668
vn -0.2949 0.6373 -0.7120
vn -0.2609 -0.7316 -0.6298
vn -0.4607 0.7586 -0.4607
vn -0.3875 0.7166 -0.5799
vn -0.3619 0.7586 -0.5417
vn -0.1330 -0.7316 -0.6686
vn -0.1503 0.6372 -0.7558
vn -0.1270 0.7586 0.6390
vn 0.0000 0.7586 0.6515
vn -0.3619 0.7586 0.5417
vn -0.2493 0.7586 0.6019
vn -0.5417 0.7586 0.3619
vn -0.4607 0.7586 0.4607
vn -0.6390 0.7586 0.1271
vn -0.6019 0.7586 0.2493
vn -0.6515 0.7586 0.0000
vn -0.6390 0.7586 -0.1271
vn -0.5417 0.7586 -0.3619
vn -0.6019 0.7586 -0.2493
vn -0.2493 0.7586 -0.6019
vn 0.0000 0.7586 -0.6515
vn -0.1271 0.7586 -0.6390
vn 0.1271 0.7586 -0.6390
vn 0.2493 0.7586 -0.6019
vn 0.4607 0.7586 -0.4607
vn 0.3619 0.7586 -0.5417
vn 0.5417 0.7586 -0.3619
vn 0.6390 0.7586 -0.1271
vn 0.6019 0.7586 -0.2493
vn 0.6515 0.7586 0.0000
vn 0.6019 0.7586 0.2493
vn 0.6390 0.7586 0.1271
vn 0.5417 0.7586 0.3619
vn 0.4607 0.7586 0.4607
vn -0.4281 0.6372 -0.6408
vn 0.2493 0.7586 0.6019
vn 0.3619 0.7586 0.5417
vn 0.1271 0.7586 0.6390
vn 0.2669 0.7166 -0.6444
vn -0.6444 0.7166 -0.2669
vn -0.2669 0.7166 0.6444
vn 0.5799 0.7166 0.3875
vn -0.2669 0.7166 -0.6444
vn 0.0000 0.7166 0.6975
vn -0.1361 0.7166 0.6841
vn 0.4932 0.7166 0.4932
vn -0.1361 0.7166 -0.6841
vn 0.3875 0.7166 0.5799
vn 0.0000 0.7166 -0.6975
vn -0.3875 0.7166 0.5799
vn 0.2669 0.7166 0.6444
vn 0.1361 0.7166 -0.6841
vn -0.4932 0.7166 0.4932
vn 0.1361 0.7166 0.6841
vn -0.5799 0.7166 0.3875
vn 0.3875 0.7166 -0.5799
vn -0.6444 0.7166 0.2669
vn 0.4932 0.7166 -0.4932
vn -0.6841 0.7166 0.1361
vn 0.5799 0.7166 -0.3875
vn -0.6975 0.7166 0.0000
vn 0.6444 0.7166 -0.2669
vn -0.6841 0.7166 -0.1361
vn 0.6841 0.7166 -0.1361
vn 0.6975 0.7166 0.0000
vn -0.5799 0.7166 -0.3875
vn 0.6841 0.7166 0.1361
vn -0.4932 0.7166 -0.4932
vn 0.6444 0.7166 0.2669
g Cylinder.003_Cylinder.004_Glas
usemtl Glas
s 1
f 66/1/1 3/2/2 1/3/3
f 65/4/4 5/5/5 3/2/2
f 67/6/6 7/7/7 5/5/5
f 68/8/8 9/9/9 7/7/7
f 69/10/10 11/11/11 9/9/9
f 70/12/12 13/13/13 11/11/11
f 71/14/14 15/15/15 13/13/13
f 72/16/16 17/17/17 15/15/15
f 73/18/18 19/19/19 17/17/17
f 74/20/20 21/21/21 19/19/19
f 75/22/22 23/23/23 21/21/21
f 76/24/24 25/25/25 23/23/23
f 77/26/26 27/27/27 25/25/25
f 78/28/28 29/29/29 27/27/27
f 79/30/30 31/31/31 29/29/29
f 80/32/32 33/33/33 31/31/31
f 81/34/34 35/35/35 33/33/33
f 82/36/36 37/37/37 35/35/35
f 83/38/38 39/39/39 37/37/37
f 84/40/40 41/41/41 39/39/39
f 85/42/42 43/43/43 41/41/41
f 86/44/44 45/45/45 43/43/43
f 87/46/46 47/47/47 45/45/45
f 88/48/48 49/49/49 47/47/47
f 89/50/50 51/51/51 49/49/49
f 90/52/52 53/53/53 51/51/51
f 91/54/54 55/55/55 53/53/53
f 92/56/56 57/57/57 55/55/55
f 93/58/58 59/59/59 57/57/57
f 59/59/59 95/60/60 61/61/61
f 26/62/62 110/63/63 28/64/64
f 95/60/60 63/65/65 61/61/61
f 96/66/66 1/67/3 63/65/65
f 15/68/15 31/69/31 47/70/47
f 4/71/67 66/72/1 2/73/68
f 4/71/67 67/74/6 65/75/4
f 8/76/69 67/74/6 6/77/70
f 8/76/69 69/78/10 68/79/8
f 12/80/71 69/78/10 10/81/72
f 12/80/71 71/82/14 70/83/12
f 16/84/73 71/82/14 14/85/74
f 18/86/75 72/87/16 16/84/73
f 20/88/76 73/89/18 18/86/75
f 20/88/76 75/90/22 74/91/20
f 24/92/77 75/90/22 22/93/78
f 26/62/62 76/94/24 24/92/77
f 28/64/64 77/95/26 26/62/62
f 30/96/79 78/97/28 28/64/64
f 30/96/79 80/98/32 79/99/30
f 34/100/80 80/98/32 32/101/81
f 36/102/82 81/103/34 34/100/80
f 36/102/82 83/104/38 82/105/36
f 38/106/83 84/107/40 83/104/38
f 42/108/84 84/107/40 40/109/85
f 44/110/86 85/111/42 42/108/84
f 44/110/86 87/112/46 86/113/44
f 48/114/87 87/112/46 46/115/88
f 50/116/89 88/117/48 48/114/87
f 50/116/89 90/118/52 89/119/50
f 54/120/90 90/118/52 52/121/91
f 56/122/92 91/123/54 54/120/90
f 58/124/93 92/125/56 56/122/92
f 58/124/93 94/126/94 93/127/58
f 62/128/95 94/126/94 60/129/96
f 62/128/95 96/130/66 95/131/60
f 2/73/68 96/130/66 64/132/97
f 115/133/98 107/134/99 99/135/100
f 54/120/90 124/136/101 56/122/92
f 28/64/64 111/137/102 30/96/79
f 4/71/67 98/138/103 97/139/104
f 58/124/93 124/136/101 125/140/105
f 30/96/79 112/141/106 32/101/81
f 4/71/67 99/135/100 6/77/70
f 58/124/93 126/142/107 60/129/96
f 32/101/81 113/143/108 34/100/80
f 6/77/70 100/144/109 8/76/69
f 62/128/95 126/142/107 127/145/110
f 34/100/80 114/146/111 36/102/82
f 8/76/69 101/147/112 10/81/72
f 62/128/95 128/148/113 64/132/97
f 36/102/82 115/133/98 38/106/83
f 10/81/72 102/149/114 12/80/71
f 64/132/97 98/138/103 2/73/68
f 38/106/83 116/150/115 40/109/85
f 12/80/71 103/151/116 14/85/74
f 40/109/85 117/152/117 42/108/84
f 14/85/74 104/153/118 16/84/73
f 42/108/84 118/154/119 44/110/86
f 16/84/73 105/155/120 18/86/75
f 44/110/86 119/156/121 46/115/88
f 18/86/75 106/157/122 20/88/76
f 46/115/88 120/158/123 48/114/87
f 20/88/76 107/134/99 22/93/78
f 48/114/87 121/159/124 50/116/89
f 22/93/78 108/160/125 24/92/77
f 52/121/91 121/159/124 122/161/126
f 24/92/77 109/162/127 26/62/62
f 52/121/91 123/163/128 54/120/90
f 66/1/1 65/4/4 3/2/2
f 65/4/4 67/6/6 5/5/5
f 67/6/6 68/8/8 7/7/7
f 68/8/8 69/10/10 9/9/9
f 69/10/10 70/12/12 11/11/11
f 70/12/12 71/14/14 13/13/13
f 71/14/14 72/16/16 15/15/15
f 72/16/16 73/18/18 17/17/17
f 73/18/18 74/20/20 19/19/19
f 74/20/20 75/22/22 21/21/21
f 75/22/22 76/24/24 23/23/23
f 76/24/24 77/26/26 25/25/25
f 77/26/26 78/28/28 27/27/27
f 78/28/28 79/30/30 29/29/29
f 79/30/30 80/32/32 31/31/31
f 80/32/32 81/34/34 33/33/33
f 81/34/34 82/36/36 35/35/35
f 82/36/36 83/38/38 37/37/37
f 83/38/38 84/40/40 39/39/39
f 84/40/40 85/42/42 41/41/41
f 85/42/42 86/44/44 43/43/43
f 86/44/44 87/46/46 45/45/45
f 87/46/46 88/48/48 47/47/47
f 88/48/48 89/50/50 49/49/49
f 89/50/50 90/52/52 51/51/51
f 90/52/52 91/54/54 53/53/53
f 91/54/54 92/56/56 55/55/55
f 92/56/56 93/58/58 57/57/57
f 93/58/58 94/164/94 59/59/59
f 59/59/59 94/164/94 95/60/60
f 26/62/62 109/162/127 110/63/63
f 95/60/60 96/66/66 63/65/65
f 96/66/66 66/165/1 1/67/3
f 63/166/65 1/167/3 3/168/2
f 3/168/2 5/169/5 7/170/7
f 7/170/7 9/171/9 11/172/11
f 11/172/11 13/173/13 7/170/7
f 13/173/13 15/68/15 7/170/7
f 15/68/15 17/174/17 19/175/19
f 19/175/19 21/176/21 15/68/15
f 21/176/21 23/177/23 15/68/15
f 23/177/23 25/178/25 31/69/31
f 25/178/25 27/179/27 31/69/31
f 27/179/27 29/180/29 31/69/31
f 31/69/31 33/181/33 35/182/35
f 35/182/35 37/183/37 39/184/39
f 39/184/39 41/185/41 43/186/43
f 43/186/43 45/187/45 47/70/47
f 47/70/47 49/188/49 51/189/51
f 51/189/51 53/190/53 55/191/55
f 55/191/55 57/192/57 63/166/65
f 57/192/57 59/193/59 63/166/65
f 59/193/59 61/194/61 63/166/65
f 63/166/65 3/168/2 7/170/7
f 31/69/31 35/182/35 47/70/47
f 35/182/35 39/184/39 47/70/47
f 39/184/39 43/186/43 47/70/47
f 47/70/47 51/189/51 63/166/65
f 51/189/51 55/191/55 63/166/65
f 63/166/65 7/170/7 15/68/15
f 15/68/15 23/177/23 31/69/31
f 63/166/65 15/68/15 47/70/47
f 4/71/67 65/75/4 66/72/1
f 4/71/67 6/77/70 67/74/6
f 8/76/69 68/79/8 67/74/6
f 8/76/69 10/81/72 69/78/10
f 12/80/71 70/83/12 69/78/10
f 12/80/71 14/85/74 71/82/14
f 16/84/73 72/87/16 71/82/14
f 18/86/75 73/89/18 72/87/16
f 20/88/76 74/91/20 73/89/18
f 20/88/76 22/93/78 75/90/22
f 24/92/77 76/94/24 75/90/22
f 26/62/62 77/95/26 76/94/24
f 28/64/64 78/97/28 77/95/26
f 30/96/79 79/99/30 78/97/28
f 30/96/79 32/101/81 80/98/32
f 34/100/80 81/103/34 80/98/32
f 36/102/82 82/105/36 81/103/34
f 36/102/82 38/106/83 83/104/38
f 38/106/83 40/109/85 84/107/40
f 42/108/84 85/111/42 84/107/40
f 44/110/86 86/113/44 85/111/42
f 44/110/86 46/115/88 87/112/46
f 48/114/87 88/117/48 87/112/46
f 50/116/89 89/119/50 88/117/48
f 50/116/89 52/121/91 90/118/52
f 54/120/90 91/123/54 90/118/52
f 56/122/92 92/125/56 91/123/54
f 58/124/93 93/127/58 92/125/56
f 58/124/93 60/129/96 94/126/94
f 62/128/95 95/131/60 94/126/94
f 62/128/95 64/132/97 96/130/66
f 2/73/68 66/72/1 96/130/66
f 99/135/100 97/139/104 98/138/103
f 98/138/103 128/148/113 99/135/100
f 128/148/113 127/145/110 99/135/100
f 127/145/110 126/142/107 123/163/128
f 126/142/107 125/140/105 123/163/128
f 125/140/105 124/136/101 123/163/128
f 123/163/128 122/161/126 121/159/124
f 121/159/124 120/158/123 123/163/128
f 120/158/123 119/156/121 123/163/128
f 119/156/121 118/154/119 117/152/117
f 117/152/117 116/150/115 119/156/121
f 116/150/115 115/133/98 119/156/121
f 115/133/98 114/146/111 113/143/108
f 113/143/108 112/141/106 115/133/98
f 112/141/106 111/137/102 115/133/98
f 111/137/102 110/63/63 109/162/127
f 109/162/127 108/160/125 107/134/99
f 107/134/99 106/157/122 105/155/120
f 105/155/120 104/153/118 107/134/99
f 104/153/118 103/151/116 107/134/99
f 103/151/116 102/149/114 101/147/112
f 101/147/112 100/144/109 99/135/100
f 111/137/102 109/162/127 115/133/98
f 109/162/127 107/134/99 115/133/98
f 103/151/116 101/147/112 107/134/99
f 101/147/112 99/135/100 107/134/99
f 99/135/100 127/145/110 123/163/128
f 123/163/128 119/156/121 115/133/98
f 99/135/100 123/163/128 115/133/98
f 54/120/90 123/163/128 124/136/101
f 28/64/64 110/63/63 111/137/102
f 4/71/67 2/73/68 98/138/103
f 58/124/93 56/122/92 124/136/101
f 30/96/79 111/137/102 112/141/106
f 4/71/67 97/139/104 99/135/100
f 58/124/93 125/140/105 126/142/107
f 32/101/81 112/141/106 113/143/108
f 6/77/70 99/135/100 100/144/109
f 62/128/95 60/129/96 126/142/107
f 34/100/80 113/143/108 114/146/111
f 8/76/69 100/144/109 101/147/112
f 62/128/95 127/145/110 128/148/113
f 36/102/82 114/146/111 115/133/98
f 10/81/72 101/147/112 102/149/114
f 64/132/97 128/148/113 98/138/103
f 38/106/83 115/133/98 116/150/115
f 12/80/71 102/149/114 103/151/116
f 40/109/85 116/150/115 117/152/117
f 14/85/74 103/151/116 104/153/118
f 42/108/84 117/152/117 118/154/119
f 16/84/73 104/153/118 105/155/120
f 44/110/86 118/154/119 119/156/121
f 18/86/75 105/155/120 106/157/122
f 46/115/88 119/156/121 120/158/123
f 20/88/76 106/157/122 107/134/99
f 48/114/87 120/158/123 121/159/124
f 22/93/78 107/134/99 108/160/125
f 52/121/91 50/116/89 121/159/124
f 24/92/77 108/160/125 109/162/127
f 52/121/91 122/161/126 123/163/128
