# Blender v2.90.0 OBJ File: 'kAMER.blend'
# www.blender.org
mtllib kleine tafel.mtl
o Cylinder.001_Cylinder.003
v 3.428894 0.976402 -3.916666
v 3.428894 1.025299 -4.109720
v 3.535611 0.976402 -3.906155
v 3.573274 1.025299 -4.095500
v 3.638227 0.976402 -3.875026
v 3.712106 1.025299 -4.053385
v 3.732799 0.976402 -3.824477
v 3.840054 1.025299 -3.984996
v 3.815692 0.976402 -3.756449
v 3.952202 1.025299 -3.892959
v 3.883720 0.976402 -3.673556
v 4.044239 1.025299 -3.780811
v 3.934269 0.976402 -3.578984
v 4.112628 1.025299 -3.652863
v 3.965398 0.976402 -3.476368
v 4.154743 1.025299 -3.514031
v 3.975909 0.976402 -3.369651
v 4.168963 1.025299 -3.369651
v 3.965398 0.976402 -3.262934
v 4.154743 1.025299 -3.225271
v 3.934270 0.976402 -3.160318
v 4.112628 1.025299 -3.086439
v 3.883720 0.976402 -3.065746
v 4.044239 1.025299 -2.958491
v 3.815692 0.976402 -2.982854
v 3.952202 1.025299 -2.846344
v 3.732799 0.976402 -2.914825
v 3.840054 1.025299 -2.754307
v 3.638227 0.976402 -2.864276
v 3.712106 1.025299 -2.685917
v 3.535611 0.976402 -2.833148
v 3.573274 1.025299 -2.643803
v 3.428894 0.976402 -2.822637
v 3.428894 1.025299 -2.629583
v 3.322177 0.976402 -2.833148
v 3.284514 1.025299 -2.643803
v 3.219561 0.976402 -2.864276
v 3.145682 1.025299 -2.685917
v 3.124989 0.976402 -2.914825
v 3.017734 1.025299 -2.754307
v 3.042096 0.976402 -2.982854
v 2.905586 1.025299 -2.846344
v 2.974068 0.976402 -3.065747
v 2.813550 1.025299 -2.958492
v 2.923519 0.976402 -3.160318
v 2.745160 1.025299 -3.086440
v 2.892390 0.976402 -3.262934
v 2.703046 1.025299 -3.225271
v 2.881880 0.976402 -3.369652
v 2.688826 1.025299 -3.369652
v 2.892391 0.976402 -3.476369
v 2.703046 1.025299 -3.514032
v 2.923519 0.976402 -3.578985
v 2.745161 1.025299 -3.652864
v 2.974069 0.976402 -3.673557
v 2.813550 1.025299 -3.780812
v 3.042097 0.976402 -3.756449
v 2.905587 1.025299 -3.892959
v 3.124990 0.976402 -3.824477
v 3.017735 1.025299 -3.984996
v 3.219562 0.976402 -3.875027
v 3.145683 1.025299 -4.053386
v 3.322178 0.976402 -3.906155
v 3.284515 1.025299 -4.095500
v 3.428894 0.958016 -3.456825
v 3.445901 0.958016 -3.455150
v 3.462254 0.958016 -3.450189
v 3.477325 0.958016 -3.442134
v 3.490535 0.958016 -3.431293
v 3.501376 0.958016 -3.418082
v 3.509432 0.958016 -3.403011
v 3.514393 0.958016 -3.386658
v 3.516068 0.958016 -3.369651
v 3.514393 0.958016 -3.352645
v 3.509432 0.958016 -3.336292
v 3.501376 0.958016 -3.321220
v 3.490535 0.958016 -3.308010
v 3.477325 0.958016 -3.297169
v 3.462254 0.958016 -3.289113
v 3.445901 0.958016 -3.284153
v 3.428894 0.958016 -3.282478
v 3.411887 0.958016 -3.284153
v 3.395534 0.958016 -3.289113
v 3.380463 0.958016 -3.297169
v 3.367253 0.958016 -3.308010
v 3.356412 0.958016 -3.321220
v 3.348356 0.958016 -3.336292
v 3.343395 0.958016 -3.352645
v 3.341720 0.958016 -3.369652
v 3.343395 0.958016 -3.386658
v 3.348356 0.958016 -3.403011
v 3.356412 0.958016 -3.418083
v 3.367253 0.958016 -3.431293
v 3.380463 0.958016 -3.442134
v 3.395534 0.958016 -3.450190
v 3.411887 0.958016 -3.455150
v 3.428894 0.313083 -3.482353
v 3.450881 0.313083 -3.480187
v 3.472023 0.313083 -3.473774
v 3.491507 0.313083 -3.463359
v 3.508586 0.313083 -3.449343
v 3.522602 0.313083 -3.432265
v 3.533016 0.313083 -3.412780
v 3.539430 0.313083 -3.391638
v 3.541595 0.313083 -3.369651
v 3.539430 0.313083 -3.347664
v 3.533016 0.313083 -3.326522
v 3.522602 0.313083 -3.307038
v 3.508586 0.313083 -3.289959
v 3.491508 0.313083 -3.275944
v 3.472023 0.313083 -3.265529
v 3.450881 0.313083 -3.259115
v 3.428894 0.313083 -3.256950
v 3.406907 0.313083 -3.259115
v 3.385765 0.313083 -3.265529
v 3.366280 0.313083 -3.275944
v 3.349202 0.313083 -3.289959
v 3.335186 0.313083 -3.307038
v 3.324771 0.313083 -3.326523
v 3.318358 0.313083 -3.347665
v 3.316192 0.313083 -3.369652
v 3.318358 0.313083 -3.391639
v 3.324771 0.313083 -3.412781
v 3.335186 0.313083 -3.432265
v 3.349202 0.313083 -3.449343
v 3.366280 0.313083 -3.463359
v 3.385765 0.313083 -3.473774
v 3.406907 0.313083 -3.480187
v 3.428893 0.111361 -3.717236
v 3.496703 0.111361 -3.710557
v 3.561908 0.111361 -3.690778
v 3.622001 0.111361 -3.658658
v 3.674673 0.111361 -3.615431
v 3.717899 0.111361 -3.562759
v 3.750019 0.111361 -3.502666
v 3.769799 0.111361 -3.437462
v 3.776478 0.111361 -3.369651
v 3.769799 0.111361 -3.301841
v 3.750019 0.111361 -3.236636
v 3.717899 0.111361 -3.176543
v 3.674673 0.111361 -3.123872
v 3.622001 0.111361 -3.080645
v 3.561908 0.111361 -3.048525
v 3.496703 0.111361 -3.028745
v 3.428893 0.111361 -3.022066
v 3.361082 0.111361 -3.028745
v 3.295878 0.111361 -3.048525
v 3.235785 0.111361 -3.080645
v 3.183113 0.111361 -3.123872
v 3.139886 0.111361 -3.176543
v 3.107766 0.111361 -3.236636
v 3.087986 0.111361 -3.301841
v 3.081308 0.111361 -3.369652
v 3.087986 0.111361 -3.437462
v 3.107766 0.111361 -3.502667
v 3.139887 0.111361 -3.562759
v 3.183113 0.111361 -3.615431
v 3.235785 0.111361 -3.658658
v 3.295878 0.111361 -3.690778
v 3.361083 0.111361 -3.710557
vt 1.000000 0.500000
vt 0.968750 1.000000
vt 0.968750 0.500000
vt 0.937500 0.500000
vt 0.937500 1.000000
vt 0.906250 0.500000
vt 0.906250 1.000000
vt 0.875000 0.500000
vt 0.875000 1.000000
vt 0.843750 0.500000
vt 0.812500 1.000000
vt 0.812500 0.500000
vt 0.781250 0.500000
vt 0.781250 1.000000
vt 0.750000 0.500000
vt 0.750000 1.000000
vt 0.718750 0.500000
vt 0.718750 1.000000
vt 0.687500 0.500000
vt 0.687500 1.000000
vt 0.656250 0.500000
vt 0.656250 1.000000
vt 0.625000 0.500000
vt 0.625000 1.000000
vt 0.593750 0.500000
vt 0.593750 1.000000
vt 0.562500 0.500000
vt 0.562500 1.000000
vt 0.531250 0.500000
vt 0.531250 1.000000
vt 0.500000 0.500000
vt 0.500000 1.000000
vt 0.468750 0.500000
vt 0.468750 1.000000
vt 0.437500 0.500000
vt 0.437500 1.000000
vt 0.406250 0.500000
vt 0.406250 1.000000
vt 0.375000 0.500000
vt 0.375000 1.000000
vt 0.343750 0.500000
vt 0.343750 1.000000
vt 0.312500 0.500000
vt 0.312500 1.000000
vt 0.281250 0.500000
vt 0.281250 1.000000
vt 0.250000 0.500000
vt 0.250000 1.000000
vt 0.218750 0.500000
vt 0.218750 1.000000
vt 0.187500 0.500000
vt 0.187500 1.000000
vt 0.156250 0.500000
vt 0.156250 1.000000
vt 0.125000 0.500000
vt 0.125000 1.000000
vt 0.093750 0.500000
vt 0.093750 1.000000
vt 0.062500 0.500000
vt 0.028269 0.341844
vt 0.158156 0.028269
vt 0.471731 0.158156
vt 0.062500 1.000000
vt 0.031250 0.500000
vt 0.031250 1.000000
vt 0.000000 0.500000
vt 0.906250 0.500000
vt 0.937500 0.500000
vt 0.406250 0.500000
vt 0.437500 0.500000
vt 0.437500 0.500000
vt 0.656250 0.500000
vt 0.375000 0.500000
vt 0.093750 0.500000
vt 0.781250 0.500000
vt 0.500000 0.500000
vt 0.218750 0.500000
vt 0.593750 0.500000
vt 0.625000 0.500000
vt 0.343750 0.500000
vt 0.062500 0.500000
vt 0.750000 0.500000
vt 0.468750 0.500000
vt 0.187500 0.500000
vt 0.875000 0.500000
vt 0.562500 0.500000
vt 0.312500 0.500000
vt 1.000000 0.500000
vt 0.000000 0.500000
vt 0.031250 0.500000
vt 0.718750 0.500000
vt 0.125000 0.500000
vt 0.156250 0.500000
vt 0.812500 0.500000
vt 0.843750 0.500000
vt 0.250000 0.500000
vt 0.281250 0.500000
vt 0.968750 0.500000
vt 0.687500 0.500000
vt 0.531250 0.500000
vt 0.312500 0.500000
vt 0.343750 0.500000
vt 0.343750 0.500000
vt 0.843750 0.500000
vt 0.406250 0.500000
vt 0.781250 0.500000
vt 0.812500 0.500000
vt 0.375000 0.500000
vt 0.750000 0.500000
vt 0.281250 0.500000
vt 0.718750 0.500000
vt 0.656250 0.500000
vt 0.687500 0.500000
vt 0.250000 0.500000
vt 0.625000 0.500000
vt 0.218750 0.500000
vt 0.187500 0.500000
vt 0.593750 0.500000
vt 1.000000 0.500000
vt 0.156250 0.500000
vt 0.562500 0.500000
vt 0.968750 0.500000
vt 0.125000 0.500000
vt 0.500000 0.500000
vt 0.531250 0.500000
vt 0.937500 0.500000
vt 0.093750 0.500000
vt 0.875000 0.500000
vt 0.906250 0.500000
vt 0.062500 0.500000
vt 0.468750 0.500000
vt 0.031250 0.500000
vt 0.703179 0.485389
vt 0.985388 0.296822
vt 0.796822 0.014612
vt 0.750000 0.500000
vt 0.281250 0.500000
vt 0.312500 0.500000
vt 0.718750 0.500000
vt 0.656250 0.500000
vt 0.687500 0.500000
vt 0.218750 0.500000
vt 0.250000 0.500000
vt 0.625000 0.500000
vt 0.187500 0.500000
vt 0.593750 0.500000
vt 1.000000 0.500000
vt 0.125000 0.500000
vt 0.156250 0.500000
vt 0.562500 0.500000
vt 0.968750 0.500000
vt 0.500000 0.500000
vt 0.531250 0.500000
vt 0.937500 0.500000
vt 0.093750 0.500000
vt 0.875000 0.500000
vt 0.906250 0.500000
vt 0.031250 0.500000
vt 0.062500 0.500000
vt 0.437500 0.500000
vt 0.468750 0.500000
vt 0.000000 0.500000
vt 0.843750 0.500000
vt 0.406250 0.500000
vt 0.781250 0.500000
vt 0.812500 0.500000
vt 0.375000 0.500000
vt 1.000000 1.000000
vt 0.843750 1.000000
vt 0.341844 0.471731
vt 0.296822 0.485388
vt 0.250000 0.490000
vt 0.203179 0.485389
vt 0.158156 0.471731
vt 0.116663 0.449553
vt 0.080295 0.419706
vt 0.050447 0.383337
vt 0.014612 0.296822
vt 0.010000 0.250000
vt 0.014611 0.203179
vt 0.028269 0.158156
vt 0.050447 0.116663
vt 0.080294 0.080294
vt 0.116663 0.050447
vt 0.203178 0.014612
vt 0.250000 0.010000
vt 0.296822 0.014612
vt 0.341844 0.028269
vt 0.383337 0.050447
vt 0.419706 0.080294
vt 0.449553 0.116663
vt 0.485388 0.203178
vt 0.490000 0.250000
vt 0.485388 0.296822
vt 0.471731 0.341844
vt 0.449553 0.383337
vt 0.419706 0.419706
vt 0.383337 0.449553
vt 0.000000 1.000000
vt 0.750000 0.490000
vt 0.883337 0.449553
vt 0.796822 0.485388
vt 0.841844 0.471731
vt 0.919706 0.419706
vt 0.949553 0.383337
vt 0.971731 0.341844
vt 0.990000 0.250000
vt 0.985388 0.203178
vt 0.971731 0.158156
vt 0.949553 0.116663
vt 0.919706 0.080294
vt 0.883337 0.050447
vt 0.841844 0.028269
vt 0.750000 0.010000
vt 0.703178 0.014612
vt 0.658156 0.028269
vt 0.616663 0.050447
vt 0.580294 0.080294
vt 0.550447 0.116663
vt 0.528269 0.158156
vt 0.514611 0.203179
vt 0.510000 0.250000
vt 0.514612 0.296822
vt 0.528269 0.341844
vt 0.550447 0.383337
vt 0.580295 0.419706
vt 0.616663 0.449553
vt 0.658156 0.471731
vt 0.000000 0.500000
vn 0.0242 -0.9691 -0.2455
vn 0.0716 -0.9691 -0.2360
vn 0.1163 -0.9691 -0.2175
vn 0.1565 -0.9691 -0.1907
vn 0.1907 -0.9691 -0.1565
vn 0.2175 -0.9691 -0.1163
vn 0.2360 -0.9691 -0.0716
vn 0.2455 -0.9691 -0.0242
vn 0.2455 -0.9691 0.0242
vn 0.2360 -0.9691 0.0716
vn 0.2175 -0.9691 0.1163
vn 0.1907 -0.9691 0.1565
vn 0.1565 -0.9691 0.1907
vn 0.1163 -0.9691 0.2175
vn 0.0716 -0.9691 0.2360
vn 0.0242 -0.9691 0.2455
vn -0.0242 -0.9691 0.2455
vn -0.0716 -0.9691 0.2360
vn -0.1163 -0.9691 0.2175
vn -0.1565 -0.9691 0.1907
vn -0.1907 -0.9691 0.1565
vn -0.2175 -0.9691 0.1163
vn -0.2360 -0.9691 0.0716
vn -0.2455 -0.9691 0.0242
vn -0.2455 -0.9691 -0.0242
vn -0.2360 -0.9691 -0.0716
vn -0.2175 -0.9691 -0.1163
vn -0.1907 -0.9691 -0.1565
vn -0.1565 -0.9691 -0.1907
vn -0.1163 -0.9691 -0.2175
vn 0.0000 1.0000 -0.0000
vn -0.0716 -0.9691 -0.2360
vn -0.0242 -0.9691 -0.2455
vn 0.0189 -0.9992 -0.0354
vn -0.4710 0.0394 0.8812
vn 0.0310 -0.9992 0.0255
vn -0.0310 -0.9992 0.0255
vn -0.0189 -0.9992 -0.0354
vn 0.0400 -0.9992 -0.0039
vn -0.0039 -0.9992 0.0400
vn -0.0384 -0.9992 -0.0117
vn 0.0255 -0.9992 -0.0310
vn 0.0255 -0.9992 0.0310
vn -0.0354 -0.9992 0.0189
vn -0.0117 -0.9992 -0.0384
vn 0.0400 -0.9992 0.0039
vn -0.0117 -0.9992 0.0384
vn -0.0354 -0.9992 -0.0189
vn 0.0310 -0.9992 -0.0255
vn 0.0189 -0.9992 0.0354
vn -0.0384 -0.9992 0.0117
vn 0.0039 -0.9992 -0.0400
vn -0.0039 -0.9992 -0.0400
vn 0.0384 -0.9992 0.0117
vn -0.0189 -0.9992 0.0354
vn -0.0310 -0.9992 -0.0255
vn 0.0354 -0.9992 -0.0189
vn 0.0117 -0.9992 0.0384
vn -0.0400 -0.9992 0.0039
vn 0.0117 -0.9992 -0.0384
vn 0.0354 -0.9992 0.0189
vn -0.0255 -0.9992 0.0310
vn -0.0255 -0.9992 -0.0310
vn 0.0384 -0.9992 -0.0117
vn 0.0039 -0.9992 0.0400
vn -0.0400 -0.9992 -0.0039
vn -0.5762 0.7571 0.3080
vn 0.8812 0.0394 -0.4711
vn -0.6339 0.0394 0.7724
vn 0.9562 0.0394 -0.2901
vn -0.7724 0.0394 0.6339
vn 0.9944 0.0394 -0.0979
vn -0.8812 0.0394 0.4710
vn 0.9944 0.0394 0.0979
vn -0.9562 0.0394 0.2900
vn 0.9562 0.0394 0.2901
vn -0.9944 0.0394 0.0979
vn 0.8812 0.0394 0.4710
vn -0.9944 0.0394 -0.0979
vn 0.7724 0.0394 0.6339
vn -0.9562 0.0394 -0.2901
vn 0.6339 0.0394 0.7724
vn -0.8812 0.0394 -0.4710
vn 0.4710 0.0394 0.8812
vn 0.0980 0.0394 -0.9944
vn -0.7724 0.0394 -0.6339
vn 0.2900 0.0394 0.9562
vn 0.2901 0.0394 -0.9562
vn -0.6339 0.0394 -0.7724
vn 0.0980 0.0394 0.9944
vn 0.4710 0.0394 -0.8812
vn -0.4710 0.0394 -0.8812
vn -0.0979 0.0394 0.9944
vn 0.6339 0.0394 -0.7724
vn -0.2900 0.0394 -0.9562
vn -0.2901 0.0394 0.9562
vn 0.7724 0.0394 -0.6339
vn -0.0979 0.0394 -0.9944
vn 0.0000 -1.0000 0.0000
vn 0.6502 0.7571 0.0640
vn -0.6252 0.7571 0.1897
vn 0.6252 0.7571 0.1897
vn -0.6502 0.7571 0.0640
vn 0.5762 0.7571 0.3080
vn -0.6502 0.7571 -0.0640
vn 0.5050 0.7571 0.4145
vn -0.6252 0.7571 -0.1897
vn 0.4145 0.7571 0.5050
vn -0.5762 0.7571 -0.3080
vn 0.3080 0.7571 0.5762
vn 0.0640 0.7571 -0.6502
vn -0.5050 0.7571 -0.4145
vn 0.1896 0.7571 0.6252
vn 0.1897 0.7571 -0.6252
vn -0.4145 0.7571 -0.5050
vn 0.0640 0.7571 0.6502
vn 0.3080 0.7571 -0.5762
vn -0.3080 0.7571 -0.5762
vn -0.0640 0.7571 0.6502
vn 0.4145 0.7571 -0.5050
vn -0.1896 0.7571 -0.6252
vn -0.1896 0.7571 0.6252
vn 0.5050 0.7571 -0.4145
vn -0.0640 0.7571 -0.6502
vn -0.3080 0.7571 0.5762
vn 0.5762 0.7571 -0.3080
vn -0.4145 0.7571 0.5050
vn 0.6252 0.7571 -0.1897
vn -0.5050 0.7571 0.4145
vn 0.6502 0.7571 -0.0640
vn -0.0384 -0.9992 0.0116
vn 0.8812 0.0394 -0.4710
vn -0.9562 0.0394 0.2901
vn 0.9562 0.0394 0.2900
vn 0.4711 0.0394 0.8812
vn 0.0979 0.0394 -0.9944
vn 0.2901 0.0394 0.9562
vn 0.2900 0.0394 -0.9562
vn 0.0979 0.0394 0.9944
vn -0.0980 0.0394 0.9944
vn -0.2901 0.0394 -0.9562
vn -0.2900 0.0394 0.9562
vn -0.6252 0.7571 -0.1896
vn 0.1897 0.7571 0.6252
vn -0.1897 0.7571 -0.6252
g Cylinder.001_Cylinder.003_Kleine_Tafel
usemtl Kleine_Tafel
s off
f 1/1/1 4/2/1 3/3/1
f 4/2/2 5/4/2 3/3/2
f 6/5/3 7/6/3 5/4/3
f 8/7/4 9/8/4 7/6/4
f 10/9/5 11/10/5 9/8/5
f 11/10/6 14/11/6 13/12/6
f 14/11/7 15/13/7 13/12/7
f 16/14/8 17/15/8 15/13/8
f 18/16/9 19/17/9 17/15/9
f 20/18/10 21/19/10 19/17/10
f 22/20/11 23/21/11 21/19/11
f 24/22/12 25/23/12 23/21/12
f 26/24/13 27/25/13 25/23/13
f 28/26/14 29/27/14 27/25/14
f 30/28/15 31/29/15 29/27/15
f 32/30/16 33/31/16 31/29/16
f 34/32/17 35/33/17 33/31/17
f 36/34/18 37/35/18 35/33/18
f 38/36/19 39/37/19 37/35/19
f 40/38/20 41/39/20 39/37/20
f 42/40/21 43/41/21 41/39/21
f 44/42/22 45/43/22 43/41/22
f 46/44/23 47/45/23 45/43/23
f 48/46/24 49/47/24 47/45/24
f 50/48/25 51/49/25 49/47/25
f 52/50/26 53/51/26 51/49/26
f 54/52/27 55/53/27 53/51/27
f 56/54/28 57/55/28 55/53/28
f 58/56/29 59/57/29 57/55/29
f 60/58/30 61/59/30 59/57/30
f 54/60/31 38/61/31 22/62/31
f 62/63/32 63/64/32 61/59/32
f 64/65/33 1/66/33 63/64/33
f 5/4/34 68/67/34 67/68/34
f 84/69/35 115/70/35 83/71/35
f 25/23/36 76/72/36 23/21/36
f 43/41/37 85/73/37 41/39/37
f 61/59/38 94/74/38 59/57/38
f 17/15/39 72/75/39 15/13/39
f 35/33/40 81/76/40 33/31/40
f 53/51/41 90/77/41 51/49/41
f 9/8/42 68/67/42 7/6/42
f 25/23/43 78/78/43 77/79/43
f 45/43/44 86/80/44 43/41/44
f 63/64/45 95/81/45 61/59/45
f 19/17/46 73/82/46 17/15/46
f 37/35/47 82/83/47 35/33/47
f 55/53/48 91/84/48 53/51/48
f 11/10/49 69/85/49 9/8/49
f 27/25/50 79/86/50 78/78/50
f 47/45/51 87/87/51 45/43/51
f 3/3/52 65/88/52 1/1/52
f 63/64/53 65/89/53 96/90/53
f 21/19/54 74/91/54 19/17/54
f 37/35/55 84/69/55 83/71/55
f 55/53/56 93/92/56 92/93/56
f 11/10/57 71/94/57 70/95/57
f 31/29/58 79/86/58 29/27/58
f 47/45/59 89/96/59 88/97/59
f 3/3/60 67/68/60 66/98/60
f 23/21/61 75/99/61 21/19/61
f 41/39/62 84/69/62 39/37/62
f 59/57/63 93/92/63 57/55/63
f 13/12/64 72/75/64 71/94/64
f 33/31/65 80/100/65 31/29/65
f 51/49/66 89/96/66 49/47/66
f 119/101/67 150/102/67 118/103/67
f 71/94/68 102/104/68 70/95/68
f 85/73/69 116/105/69 84/69/69
f 71/94/70 104/106/70 103/107/70
f 86/80/71 117/108/71 85/73/71
f 73/82/72 104/106/72 72/75/72
f 87/87/73 118/103/73 86/80/73
f 74/91/74 105/109/74 73/82/74
f 87/87/75 120/110/75 119/101/75
f 75/99/76 106/111/76 74/91/76
f 89/96/77 120/110/77 88/97/77
f 75/99/78 108/112/78 107/113/78
f 90/77/79 121/114/79 89/96/79
f 76/72/80 109/115/80 108/112/80
f 91/84/81 122/116/81 90/77/81
f 78/78/82 109/115/82 77/79/82
f 92/93/83 123/117/83 91/84/83
f 79/86/84 110/118/84 78/78/84
f 66/98/85 97/119/85 65/88/85
f 93/92/86 124/120/86 92/93/86
f 80/100/87 111/121/87 79/86/87
f 67/68/88 98/122/88 66/98/88
f 94/74/89 125/123/89 93/92/89
f 80/100/90 113/124/90 112/125/90
f 68/67/91 99/126/91 67/68/91
f 95/81/92 126/127/92 94/74/92
f 82/83/93 113/124/93 81/76/93
f 68/67/94 101/128/94 100/129/94
f 96/90/95 127/130/95 95/81/95
f 82/83/96 115/70/96 114/131/96
f 70/95/97 101/128/97 69/85/97
f 65/89/98 128/132/98 96/90/98
f 160/133/99 136/134/99 144/135/99
f 106/111/100 137/136/100 105/109/100
f 119/101/101 152/137/101 151/138/101
f 107/113/102 138/139/102 106/111/102
f 121/114/103 152/137/103 120/110/103
f 107/113/104 140/140/104 139/141/104
f 121/114/105 154/142/105 153/143/105
f 108/112/106 141/144/106 140/140/106
f 122/116/107 155/145/107 154/142/107
f 110/118/108 141/144/108 109/115/108
f 124/120/109 155/145/109 123/117/109
f 111/121/110 142/146/110 110/118/110
f 98/122/111 129/147/111 97/119/111
f 124/120/112 157/148/112 156/149/112
f 112/125/113 143/150/113 111/121/113
f 99/126/114 130/151/114 98/122/114
f 126/127/115 157/148/115 125/123/115
f 112/125/116 145/152/116 144/153/116
f 100/129/117 131/154/117 99/126/117
f 127/130/118 158/155/118 126/127/118
f 114/131/119 145/152/119 113/124/119
f 100/129/120 133/156/120 132/157/120
f 127/130/121 160/158/121 159/159/121
f 114/131/122 147/160/122 146/161/122
f 102/104/123 133/156/123 101/128/123
f 97/162/124 160/158/124 128/132/124
f 116/105/125 147/160/125 115/70/125
f 103/107/126 134/163/126 102/104/126
f 117/108/127 148/164/127 116/105/127
f 103/107/128 136/165/128 135/166/128
f 118/103/129 149/167/129 117/108/129
f 105/109/130 136/165/130 104/106/130
f 1/1/1 2/168/1 4/2/1
f 4/2/2 6/5/2 5/4/2
f 6/5/3 8/7/3 7/6/3
f 8/7/4 10/9/4 9/8/4
f 10/9/5 12/169/5 11/10/5
f 11/10/6 12/169/6 14/11/6
f 14/11/7 16/14/7 15/13/7
f 16/14/8 18/16/8 17/15/8
f 18/16/9 20/18/9 19/17/9
f 20/18/10 22/20/10 21/19/10
f 22/20/11 24/22/11 23/21/11
f 24/22/12 26/24/12 25/23/12
f 26/24/13 28/26/13 27/25/13
f 28/26/14 30/28/14 29/27/14
f 30/28/15 32/30/15 31/29/15
f 32/30/16 34/32/16 33/31/16
f 34/32/17 36/34/17 35/33/17
f 36/34/18 38/36/18 37/35/18
f 38/36/19 40/38/19 39/37/19
f 40/38/20 42/40/20 41/39/20
f 42/40/21 44/42/21 43/41/21
f 44/42/22 46/44/22 45/43/22
f 46/44/23 48/46/23 47/45/23
f 48/46/24 50/48/24 49/47/24
f 50/48/25 52/50/25 51/49/25
f 52/50/26 54/52/26 53/51/26
f 54/52/27 56/54/27 55/53/27
f 56/54/28 58/56/28 57/55/28
f 58/56/29 60/58/29 59/57/29
f 60/58/30 62/63/30 61/59/30
f 6/170/31 4/171/31 2/172/31
f 2/172/31 64/173/31 6/170/31
f 64/173/31 62/174/31 6/170/31
f 62/174/31 60/175/31 58/176/31
f 58/176/31 56/177/31 54/60/31
f 54/60/31 52/178/31 50/179/31
f 50/179/31 48/180/31 54/60/31
f 48/180/31 46/181/31 54/60/31
f 46/181/31 44/182/31 38/61/31
f 44/182/31 42/183/31 38/61/31
f 42/183/31 40/184/31 38/61/31
f 38/61/31 36/185/31 34/186/31
f 34/186/31 32/187/31 30/188/31
f 30/188/31 28/189/31 26/190/31
f 26/190/31 24/191/31 22/62/31
f 22/62/31 20/192/31 18/193/31
f 18/193/31 16/194/31 22/62/31
f 16/194/31 14/195/31 22/62/31
f 14/195/31 12/196/31 10/197/31
f 10/197/31 8/198/31 6/170/31
f 62/174/31 58/176/31 6/170/31
f 58/176/31 54/60/31 6/170/31
f 38/61/31 34/186/31 22/62/31
f 34/186/31 30/188/31 22/62/31
f 30/188/31 26/190/31 22/62/31
f 14/195/31 10/197/31 22/62/31
f 10/197/31 6/170/31 22/62/31
f 54/60/31 46/181/31 38/61/31
f 6/170/31 54/60/31 22/62/31
f 62/63/32 64/65/32 63/64/32
f 64/65/33 2/199/33 1/66/33
f 5/4/34 7/6/34 68/67/34
f 84/69/35 116/105/35 115/70/35
f 25/23/36 77/79/36 76/72/36
f 43/41/37 86/80/37 85/73/37
f 61/59/38 95/81/38 94/74/38
f 17/15/39 73/82/39 72/75/39
f 35/33/40 82/83/40 81/76/40
f 53/51/41 91/84/41 90/77/41
f 9/8/42 69/85/42 68/67/42
f 25/23/43 27/25/43 78/78/43
f 45/43/44 87/87/44 86/80/44
f 63/64/45 96/90/45 95/81/45
f 19/17/46 74/91/46 73/82/46
f 37/35/47 83/71/47 82/83/47
f 55/53/48 92/93/48 91/84/48
f 11/10/49 70/95/49 69/85/49
f 27/25/50 29/27/50 79/86/50
f 47/45/131 88/97/131 87/87/131
f 3/3/52 66/98/52 65/88/52
f 63/64/53 1/66/53 65/89/53
f 21/19/54 75/99/54 74/91/54
f 37/35/55 39/37/55 84/69/55
f 55/53/56 57/55/56 93/92/56
f 11/10/57 13/12/57 71/94/57
f 31/29/58 80/100/58 79/86/58
f 47/45/59 49/47/59 89/96/59
f 3/3/60 5/4/60 67/68/60
f 23/21/61 76/72/61 75/99/61
f 41/39/62 85/73/62 84/69/62
f 59/57/63 94/74/63 93/92/63
f 13/12/64 15/13/64 72/75/64
f 33/31/65 81/76/65 80/100/65
f 51/49/66 90/77/66 89/96/66
f 119/101/67 151/138/67 150/102/67
f 71/94/132 103/107/132 102/104/132
f 85/73/69 117/108/69 116/105/69
f 71/94/70 72/75/70 104/106/70
f 86/80/71 118/103/71 117/108/71
f 73/82/72 105/109/72 104/106/72
f 87/87/73 119/101/73 118/103/73
f 74/91/74 106/111/74 105/109/74
f 87/87/133 88/97/133 120/110/133
f 75/99/134 107/113/134 106/111/134
f 89/96/77 121/114/77 120/110/77
f 75/99/78 76/72/78 108/112/78
f 90/77/79 122/116/79 121/114/79
f 76/72/80 77/79/80 109/115/80
f 91/84/81 123/117/81 122/116/81
f 78/78/82 110/118/82 109/115/82
f 92/93/83 124/120/83 123/117/83
f 79/86/135 111/121/135 110/118/135
f 66/98/136 98/122/136 97/119/136
f 93/92/86 125/123/86 124/120/86
f 80/100/137 112/125/137 111/121/137
f 67/68/138 99/126/138 98/122/138
f 94/74/89 126/127/89 125/123/89
f 80/100/139 81/76/139 113/124/139
f 68/67/91 100/129/91 99/126/91
f 95/81/92 127/130/92 126/127/92
f 82/83/140 114/131/140 113/124/140
f 68/67/94 69/85/94 101/128/94
f 96/90/141 128/132/141 127/130/141
f 82/83/142 83/71/142 115/70/142
f 70/95/97 102/104/97 101/128/97
f 65/89/98 97/162/98 128/132/98
f 160/133/99 129/200/99 132/201/99
f 129/200/99 130/202/99 132/201/99
f 130/202/99 131/203/99 132/201/99
f 132/201/99 133/204/99 134/205/99
f 134/205/99 135/206/99 132/201/99
f 135/206/99 136/134/99 132/201/99
f 136/134/99 137/207/99 138/208/99
f 138/208/99 139/209/99 136/134/99
f 139/209/99 140/210/99 136/134/99
f 140/210/99 141/211/99 142/212/99
f 142/212/99 143/213/99 144/135/99
f 144/135/99 145/214/99 146/215/99
f 146/215/99 147/216/99 148/217/99
f 148/217/99 149/218/99 150/219/99
f 150/219/99 151/220/99 148/217/99
f 151/220/99 152/221/99 148/217/99
f 152/221/99 153/222/99 154/223/99
f 154/223/99 155/224/99 152/221/99
f 155/224/99 156/225/99 152/221/99
f 156/225/99 157/226/99 160/133/99
f 157/226/99 158/227/99 160/133/99
f 158/227/99 159/228/99 160/133/99
f 140/210/99 142/212/99 136/134/99
f 142/212/99 144/135/99 136/134/99
f 144/135/99 146/215/99 152/221/99
f 146/215/99 148/217/99 152/221/99
f 160/133/99 132/201/99 136/134/99
f 152/221/99 156/225/99 144/135/99
f 156/225/99 160/133/99 144/135/99
f 106/111/100 138/139/100 137/136/100
f 119/101/101 120/110/101 152/137/101
f 107/113/102 139/141/102 138/139/102
f 121/114/103 153/143/103 152/137/103
f 107/113/104 108/112/104 140/140/104
f 121/114/105 122/116/105 154/142/105
f 108/112/106 109/115/106 141/144/106
f 122/116/143 123/117/143 155/145/143
f 110/118/108 142/146/108 141/144/108
f 124/120/109 156/149/109 155/145/109
f 111/121/110 143/150/110 142/146/110
f 98/122/111 130/151/111 129/147/111
f 124/120/112 125/123/112 157/148/112
f 112/125/144 144/153/144 143/150/144
f 99/126/114 131/154/114 130/151/114
f 126/127/115 158/155/115 157/148/115
f 112/125/116 113/124/116 145/152/116
f 100/129/117 132/157/117 131/154/117
f 127/130/118 159/159/118 158/155/118
f 114/131/119 146/161/119 145/152/119
f 100/129/120 101/128/120 133/156/120
f 127/130/145 128/132/145 160/158/145
f 114/131/122 115/70/122 147/160/122
f 102/104/123 134/163/123 133/156/123
f 97/162/124 129/229/124 160/158/124
f 116/105/125 148/164/125 147/160/125
f 103/107/126 135/166/126 134/163/126
f 117/108/127 149/167/127 148/164/127
f 103/107/128 104/106/128 136/165/128
f 118/103/129 150/102/129 149/167/129
f 105/109/130 137/136/130 136/165/130
