# Blender v2.90.0 OBJ File: 'kAMER.blend'
# www.blender.org
mtllib kussen moment.mtl
o kussen_Cube.011
v 5.303266 1.184602 -3.348160
v 5.358453 1.397985 -3.564480
v 5.108786 1.196455 -3.436478
v 5.338720 1.520502 -3.808993
v 5.167179 1.455971 -4.087296
v 5.042828 1.377038 -3.885832
v 5.306274 1.109824 -3.377237
v 5.111729 1.123224 -3.464957
v 5.284326 1.136208 -3.541965
v 5.170863 1.372646 -4.119606
v 5.217961 1.294282 -3.976785
v 5.046527 1.293331 -3.918288
v 5.742968 1.213539 -3.372459
v 5.923563 1.249583 -3.482341
v 5.638347 1.413570 -3.581596
v 5.752703 1.491092 -4.120272
v 5.616011 1.532002 -3.825737
v 5.914906 1.431059 -3.934735
v 5.746135 1.138162 -3.401706
v 5.746441 1.166384 -3.567520
v 5.926682 1.175430 -3.511116
v 5.755750 1.411366 -4.151218
v 5.917996 1.350328 -3.966069
v 5.742445 1.328652 -4.005244
v 5.274431 1.310477 -3.476853
v 5.214015 1.498771 -3.900177
v 5.729845 1.526354 -3.932156
v 5.741849 1.338406 -3.502008
vt 0.443928 0.822265
vt 0.556017 0.821989
vt 0.557158 0.927999
vt 0.442783 0.927731
vt 0.412924 0.537924
vt 0.587076 0.537924
vt 0.587076 0.712076
vt 0.412924 0.712076
vt 0.662924 0.537924
vt 0.837076 0.537924
vt 0.837076 0.712076
vt 0.662924 0.712076
vt 0.412924 0.037924
vt 0.587076 0.037924
vt 0.587076 0.212076
vt 0.412924 0.212076
vt 0.412924 0.287924
vt 0.587076 0.287924
vt 0.587076 0.462076
vt 0.412924 0.462076
vt 0.162924 0.712076
vt 0.162924 0.750000
vt 0.125000 0.712076
vt 0.587076 0.962076
vt 0.625000 0.962076
vt 0.587076 1.000000
vt 0.162924 0.537924
vt 0.125000 0.537924
vt 0.162924 0.500000
vt 0.625000 0.287924
vt 0.625000 0.287924
vt 0.587076 0.250000
vt 0.337076 0.712076
vt 0.375000 0.712076
vt 0.337076 0.750000
vt 0.625000 0.787924
vt 0.625000 0.787924
vt 0.587076 0.750000
vt 0.337076 0.537924
vt 0.337076 0.500000
vt 0.375000 0.537924
vt 0.625000 0.537924
vt 0.625000 0.537924
vt 0.587076 0.500000
vt 0.412924 0.000000
vt 0.587076 0.000000
vt 0.625000 0.037924
vt 0.625000 0.212076
vt 0.625000 0.462076
vt 0.587076 0.787924
vt 0.412924 0.787924
vt 0.412924 0.962076
vn 0.1402 0.8411 0.5224
vn 0.1051 0.9741 0.2001
vn -0.1849 0.9579 0.2193
vn -0.1754 0.8200 0.5448
vn 0.7386 -0.6536 0.1650
vn 0.7824 -0.4244 -0.4558
vn 0.8168 0.5704 -0.0864
vn 0.7700 0.3138 0.5555
vn 0.3388 -0.2497 -0.9071
vn -0.4104 -0.2994 -0.8614
vn -0.4852 0.6604 -0.5730
vn 0.3217 0.7122 -0.6239
vn -0.7367 0.2124 0.6420
vn -0.8902 0.4551 0.0189
vn -0.7685 -0.5295 -0.3591
vn -0.6268 -0.7400 0.2440
vn -0.0025 -0.9648 -0.2627
vn -0.0388 -0.9113 -0.4099
vn 0.1127 -0.9001 -0.4209
vn 0.0966 -0.9582 -0.2694
vn -0.1684 0.1672 0.9714
vn -0.2628 0.7608 0.5934
vn -0.3498 0.9333 0.0806
vn -0.1006 -0.8366 0.5385
vn 0.2528 0.1958 0.9475
vn 0.2246 0.7952 0.5631
vn 0.2383 0.9704 0.0400
vn 0.2658 -0.8130 0.5180
usemtl None
s 1
f 15/1/1 17/2/2 4/3/3 2/4/4
f 21/5/5 23/6/6 18/7/7 14/8/8
f 22/9/9 10/10/10 5/11/11 16/12/12
f 3/13/13 6/14/14 12/15/15 8/16/16
f 9/17/17 11/18/18 24/19/19 20/20/20
f 1/21/21 25/22/22 3/23/13
f 26/24/23 5/25/11 6/26/14
f 7/27/24 8/28/16 9/29/17
f 10/30/10 11/31/18 12/32/15
f 13/33/25 14/34/8 28/35/26
f 16/36/12 27/37/27 18/38/7
f 19/39/28 20/40/20 21/41/5
f 22/42/9 23/43/6 24/44/19
f 7/27/24 1/21/21 3/23/13 8/28/16
f 25/45/22 26/46/23 6/14/14 3/13/13
f 5/47/11 10/48/10 12/15/15 6/14/14
f 11/18/18 9/17/17 8/16/16 12/15/15
f 19/39/28 7/27/24 9/29/17 20/40/20
f 10/30/10 22/49/9 24/19/19 11/18/18
f 23/6/6 21/5/5 20/20/20 24/19/19
f 13/33/25 19/39/28 21/5/5 14/8/8
f 22/9/9 16/12/12 18/7/7 23/6/6
f 27/50/27 28/51/26 14/8/8 18/7/7
f 1/21/21 13/33/25 28/35/26 25/22/22
f 16/36/12 5/25/11 26/24/23 27/50/27
f 7/27/24 19/39/28 13/33/25 1/21/21
f 2/4/4 4/3/3 26/24/23 25/52/22
f 17/2/2 15/1/1 28/51/26 27/50/27
f 15/1/1 2/4/4 25/52/22 28/51/26
f 4/3/3 17/2/2 27/50/27 26/24/23
