# Blender v2.79 (sub 0) OBJ File: 'kAMER.blend'
# www.blender.org
mtllib stoel.mtl
o Stoel_Cube.006
v 1.626179 0.666137 3.031820
v 1.642065 2.136404 3.048815
v 2.335614 0.666137 2.404731
v 2.351501 2.136404 2.421726
v 1.704244 0.666137 3.120136
v 1.704244 2.210371 3.120136
v 2.413680 0.666137 2.493047
v 2.413680 2.210371 2.493047
v 1.980897 0.666137 2.718275
v 1.626179 1.438254 3.031820
v 1.996783 2.136404 2.735271
v 2.335614 1.438254 2.404731
v 1.980897 1.438254 2.718275
v 1.803538 0.666137 2.875047
v 1.626179 1.824312 3.031820
v 2.174142 2.136404 2.578498
v 2.335614 1.052195 2.404731
v 2.158256 0.666137 2.561503
v 1.626179 1.052195 3.031820
v 1.819424 2.136404 2.892043
v 2.335614 1.824312 2.404731
v 2.158256 1.438254 2.561503
v 1.803538 1.438254 2.875047
v 1.980897 1.052195 2.718275
v 1.980897 1.824312 2.718275
v 1.803538 1.824312 2.875047
v 1.803538 1.052195 2.875047
v 2.158256 1.052195 2.561503
v 2.158256 1.824312 2.561503
v 1.714858 0.666137 2.953434
v 1.626179 2.017341 3.031820
v 2.262821 2.136404 2.500112
v 2.322948 0.839990 2.415927
v 2.069576 0.666137 2.639889
v 1.626179 1.245224 3.031820
v 1.908103 2.136404 2.813657
v 2.335614 1.631283 2.404731
v 2.246935 1.438254 2.483117
v 1.892217 1.438254 2.796661
v 1.980897 0.859166 2.718275
v 1.980897 1.631283 2.718275
v 1.892217 0.666137 2.796661
v 1.626179 1.631283 3.031820
v 2.085462 2.136404 2.656884
v 2.335614 1.245224 2.404731
v 2.246935 0.666137 2.483117
v 1.639627 0.842680 3.019933
v 1.730745 2.136404 2.970429
v 2.335614 2.017341 2.404731
v 2.069576 1.438254 2.639889
v 1.714858 1.438254 2.953434
v 1.980897 1.245224 2.718275
v 1.980897 2.017341 2.718275
v 1.892217 1.824312 2.796661
v 1.714858 1.824312 2.953434
v 1.803538 1.631283 2.875047
v 1.803538 2.017341 2.875047
v 1.892217 1.052195 2.796661
v 1.714858 1.052195 2.953434
v 1.803538 0.859166 2.875047
v 1.803538 1.245224 2.875047
v 2.246935 1.052195 2.483117
v 2.069576 1.052195 2.639889
v 2.158256 0.859166 2.561503
v 2.158256 1.245224 2.561503
v 2.246935 1.824312 2.483117
v 2.069576 1.824312 2.639889
v 2.158256 1.631283 2.561503
v 2.158256 2.017341 2.561503
v 2.069576 2.017341 2.639889
v 2.069576 1.631283 2.639889
v 2.246935 1.631283 2.483117
v 2.069576 1.245224 2.639889
v 2.069576 0.859166 2.639889
v 2.246935 0.859166 2.483117
v 1.714858 1.245224 2.953434
v 1.714858 0.859166 2.953434
v 1.892217 0.859166 2.796661
v 1.714858 2.017341 2.953434
v 1.714858 1.631283 2.953434
v 1.892217 1.631283 2.796661
v 1.892217 2.017341 2.796661
v 1.892217 1.245224 2.796661
v 2.246935 1.245224 2.483117
v 2.246935 2.017341 2.483117
v 1.159176 0.666137 2.324781
v 1.070497 0.666137 2.403168
v 1.813216 0.839990 1.839259
v 1.779932 0.666137 1.776079
v 1.513894 0.666137 2.011237
v 1.425215 0.666137 2.089623
v 1.471164 0.859166 2.141607
v 1.336535 0.666137 2.168009
v 1.247856 0.666137 2.246396
v 1.691253 0.666137 1.854465
v 1.602573 0.666137 1.932851
v 1.293806 0.859166 2.298379
v 1.648523 0.859166 1.984835
v 1.129895 0.842680 2.443264
v 1.559844 0.859166 2.063221
v 1.737203 0.859166 1.906449
v 1.205126 0.859166 2.376765
v 1.382485 0.859166 2.219993
v 2.246935 2.099887 2.483117
v 2.360501 2.161423 2.432885
v 2.335614 2.099887 2.404731
v 1.892217 2.099887 2.796661
v 1.980897 2.099887 2.718275
v 2.069576 2.099887 2.639889
v 2.158256 2.099887 2.561503
v 1.714858 2.099887 2.953434
v 1.803538 2.099887 2.875047
v 1.626179 2.099887 3.031820
v 1.651066 2.161423 3.059974
v 1.384558 0.859166 2.401049
v 1.295879 0.859166 2.479435
v 1.154967 0.804755 2.320019
v 1.775723 0.804755 1.771317
v 1.903969 0.839990 1.941929
v 1.687044 0.804755 1.849703
v 1.827955 0.859166 2.009119
v 1.561917 0.859166 2.244277
v 1.421005 0.804755 2.084861
v 1.739276 0.859166 2.087505
v 1.598364 0.804755 1.928089
v 1.650597 0.859166 2.165891
v 1.509685 0.804755 2.006475
v 2.271821 2.161423 2.511271
v 2.183142 2.161423 2.589658
v 2.094463 2.161423 2.668044
v 2.005783 2.161423 2.746430
v 1.917104 2.161423 2.824816
v 1.828424 2.161423 2.903202
v 1.739745 2.161423 2.981588
v 1.243646 0.804755 2.241633
v 1.066287 0.804755 2.398406
v 1.220647 0.842680 2.545935
v 1.332326 0.804755 2.163247
v 1.473238 0.859166 2.322663
v 1.067687 0.758666 2.399989
v 1.095772 0.804755 2.372343
v 1.145931 0.859166 2.429089
v 1.236684 0.859166 2.531759
v 1.626179 0.794986 3.031820
v 1.655664 0.859166 3.005757
v 1.208247 0.808524 2.559006
v 1.117721 0.811456 2.456593
v 1.874069 0.859166 1.968358
v 1.801806 0.833049 1.800825
v 1.783316 0.859166 1.865688
v 2.335614 0.766512 2.404731
v 2.293048 0.859166 2.442356
v 1.896845 0.821202 1.908344
v 2.057773 0.666137 2.090405
v 1.969094 0.666137 2.168791
v 1.791735 0.666137 2.325563
v 1.703056 0.666137 2.403949
v 1.525697 0.666137 2.560721
v 1.614376 0.666137 2.482335
v 1.348338 0.666137 2.717494
v 1.437017 0.666137 2.639107
v 1.880414 0.666137 2.247177
v 1.830173 0.666137 2.011628
v 1.564135 0.666137 2.246786
v 1.386776 0.666137 2.403558
v 1.918853 0.666137 1.933242
v 1.652814 0.666137 2.168400
v 1.475456 0.666137 2.325172
v 1.209417 0.666137 2.560331
v 1.298097 0.666137 2.481945
v 1.741494 0.666137 2.090014
v 2.196694 0.666137 2.247568
v 1.930655 0.666137 2.482726
v 1.753297 0.666137 2.639498
v 1.487258 0.666137 2.874657
v 1.575938 0.666137 2.796270
v 2.019335 0.666137 2.404340
v 2.108014 0.666137 2.325954
v 1.841976 0.666137 2.561112
v 1.664617 0.666137 2.717884
v 1.714858 0.038454 2.953434
v 1.626179 0.038454 3.031820
v 2.196694 0.038454 2.247568
v 2.335614 0.038454 2.404731
v 1.830173 0.038454 2.011628
v 1.691253 0.038454 1.854465
v 2.246935 0.038454 2.483117
v 1.159176 0.038454 2.324781
v 1.070497 0.038454 2.403168
v 1.779932 0.038454 1.776079
v 1.487258 0.038454 2.874657
v 1.575938 0.038454 2.796270
v 1.918853 0.038454 1.933242
v 1.209417 0.038454 2.560331
v 1.298097 0.038454 2.481945
v 2.108014 0.038454 2.325954
vn 0.6623 0.0000 0.7493
vn -0.7493 0.0000 0.6623
vn -0.6623 0.0000 -0.7493
vn 0.7493 0.0000 -0.6623
vn 0.0000 -1.0000 0.0000
vn -0.5586 0.5372 -0.6320
vn 0.7402 -0.0001 -0.6724
vn -0.7579 0.0001 0.6524
vn -0.5748 0.4968 -0.6502
vn -0.4572 0.7922 0.4041
vn -0.6855 0.3987 0.6092
vn 0.0000 1.0000 0.0000
vn 0.3245 0.9013 -0.2868
vn -0.3864 0.8121 -0.4372
vn -0.3377 0.8359 -0.4328
vn -0.4938 0.8430 -0.2132
vn 0.7032 0.3813 -0.6001
vn -0.3447 0.8539 -0.3900
vn -0.6616 -0.0458 -0.7485
usemtl Stoel_Poten
s off
f 3//1 46//1 187//1 184//1
f 1//2 175//2 191//2 182//2
f 87//3 86//3 188//3 189//3
f 89//4 166//4 193//4 190//4
f 193//5 185//5 186//5 190//5
f 195//5 194//5 189//5 188//5
f 184//5 187//5 196//5 183//5
f 181//5 182//5 191//5 192//5
f 178//3 172//3 183//3 196//3
f 176//4 30//4 181//4 192//4
f 170//1 169//1 194//1 195//1
f 163//2 95//2 186//2 185//2
f 169//2 87//2 189//2 194//2
f 175//3 176//3 192//3 191//3
f 86//4 170//4 195//4 188//4
f 95//3 89//3 190//3 186//3
f 166//1 163//1 185//1 193//1
f 46//2 178//2 196//2 187//2
f 30//1 1//1 182//1 181//1
f 172//4 3//4 184//4 183//4
usemtl Stoel_1
f 104//6 32//6 4//6 106//6
f 3//7 151//7 33//7 17//7 45//7 12//7 37//7 21//7 49//7 106//7 4//7 105//7 8//7 7//7
f 7//1 8//1 6//1 5//1
f 5//8 6//8 114//8 2//8 113//8 31//8 15//8 43//8 10//8 35//8 19//8 47//8 144//8 1//8
f 3//5 7//5 5//5 1//5 30//5 14//5 42//5 9//5 34//5 18//5 46//5
f 105//9 4//9 32//9 16//9 44//9 11//9 36//9 20//9 48//9 2//9 114//9 134//9 133//9 132//9 131//9 130//9 129//9 128//9
f 84//3 38//3 12//3 45//3
f 83//3 39//3 13//3 52//3
f 107//6 36//6 11//6 108//6
f 81//3 54//3 25//3 41//3
f 80//3 55//3 26//3 56//3
f 111//6 48//6 20//6 112//6
f 78//3 58//3 24//3 40//3
f 77//3 59//3 27//3 60//3
f 76//3 51//3 23//3 61//3
f 75//3 62//3 17//3 33//3 152//3
f 74//3 63//3 28//3 64//3
f 73//3 50//3 22//3 65//3
f 72//3 66//3 21//3 37//3
f 71//3 67//3 29//3 68//3
f 109//6 44//6 16//6 110//6
f 67//3 70//3 69//3 29//3
f 25//3 53//3 70//3 67//3
f 108//6 11//6 44//6 109//6
f 50//3 71//3 68//3 22//3
f 13//3 41//3 71//3 50//3
f 41//3 25//3 67//3 71//3
f 38//3 72//3 37//3 12//3
f 22//3 68//3 72//3 38//3
f 68//3 29//3 66//3 72//3
f 63//3 73//3 65//3 28//3
f 24//3 52//3 73//3 63//3
f 52//3 13//3 50//3 73//3
f 137//10 143//10 142//10 99//10
f 144//11 47//11 137//11 99//11 136//11 140//11 147//11 146//11
f 40//3 24//3 63//3 74//3
f 124//12 121//12 101//12 98//12
f 168//5 165//5 94//5 93//5
f 64//3 28//3 62//3 75//3
f 59//3 76//3 61//3 27//3
f 19//3 35//3 76//3 59//3
f 35//3 10//3 51//3 76//3
f 116//12 115//12 97//12 102//12
f 47//3 19//3 59//3 77//3 145//3
f 167//5 164//5 91//5 90//5
f 148//13 119//13 88//13 150//13
f 60//3 27//3 58//3 78//3
f 55//3 79//3 57//3 26//3
f 15//3 31//3 79//3 55//3
f 113//6 2//6 48//6 111//6
f 51//3 80//3 56//3 23//3
f 10//3 43//3 80//3 51//3
f 43//3 15//3 55//3 80//3
f 39//3 81//3 41//3 13//3
f 23//3 56//3 81//3 39//3
f 56//3 26//3 54//3 81//3
f 54//3 82//3 53//3 25//3
f 26//3 57//3 82//3 54//3
f 112//6 20//6 36//6 107//6
f 58//3 83//3 52//3 24//3
f 27//3 61//3 83//3 58//3
f 61//3 23//3 39//3 83//3
f 62//3 84//3 45//3 17//3
f 28//3 65//3 84//3 62//3
f 65//3 22//3 38//3 84//3
f 66//3 85//3 49//3 21//3
f 29//3 69//3 85//3 66//3
f 110//6 16//6 32//6 104//6
f 127//14 100//14 98//14 125//14
f 123//14 92//14 100//14 127//14
f 120//15 101//15 150//15 88//15 149//15 118//15
f 125//14 98//14 101//14 120//14
f 117//14 102//14 97//14 135//14
f 136//16 99//16 142//16 141//16
f 138//14 103//14 92//14 123//14
f 135//14 97//14 103//14 138//14
f 171//5 167//5 90//5 96//5
f 126//12 124//12 98//12 100//12
f 164//5 168//5 93//5 91//5
f 122//12 126//12 100//12 92//12
f 139//12 122//12 92//12 103//12
f 163//5 171//5 96//5 95//5
f 115//12 139//12 103//12 97//12
f 33//17 151//17 153//17 149//17 88//17 119//17
f 165//5 170//5 86//5 94//5
f 69//3 110//3 104//3 85//3
f 85//3 104//3 106//3 49//3
f 57//3 112//3 107//3 82//3
f 82//3 107//3 108//3 53//3
f 53//3 108//3 109//3 70//3
f 70//3 109//3 110//3 69//3
f 31//3 113//3 111//3 79//3
f 79//3 111//3 112//3 57//3
f 74//12 64//12 124//12 126//12
f 8//18 105//18 128//18 129//18 130//18 131//18 132//18 133//18 134//18 114//18 6//18
f 91//19 123//19 127//19 90//19
f 90//19 127//19 125//19 96//19
f 64//12 75//12 121//12 124//12
f 40//12 74//12 126//12 122//12
f 93//19 138//19 123//19 91//19
f 96//19 125//19 120//19 95//19
f 152//13 33//13 119//13 148//13
f 95//19 120//19 118//19 89//19
f 87//19 140//19 136//19 141//19 117//19 86//19
f 77//12 60//12 115//12 116//12
f 60//12 78//12 139//12 115//12
f 86//19 117//19 135//19 94//19
f 47//10 145//10 143//10 137//10
f 78//12 40//12 122//12 139//12
f 94//19 135//19 138//19 93//19
f 141//14 142//14 102//14 117//14
f 1//2 144//2 146//2 147//2 140//2 87//2 169//2 160//2 175//2
f 143//12 116//12 102//12 142//12
f 145//12 77//12 116//12 143//12
f 75//12 152//12 148//12 121//12
f 121//12 148//12 150//12 101//12
f 151//4 3//4 172//4 154//4 166//4 89//4 118//4 149//4 153//4
f 180//5 176//5 161//5 158//5
f 178//5 177//5 162//5 155//5
f 179//5 174//5 159//5 157//5
f 177//5 173//5 156//5 162//5
f 176//5 175//5 160//5 161//5
f 173//5 179//5 157//5 156//5
f 172//5 178//5 155//5 154//5
f 174//5 180//5 158//5 159//5
f 158//5 161//5 170//5 165//5
f 155//5 162//5 171//5 163//5
f 157//5 159//5 168//5 164//5
f 162//5 156//5 167//5 171//5
f 161//5 160//5 169//5 170//5
f 156//5 157//5 164//5 167//5
f 154//5 155//5 163//5 166//5
f 159//5 158//5 165//5 168//5
f 42//5 14//5 180//5 174//5
f 34//5 9//5 179//5 173//5
f 18//5 34//5 173//5 177//5
f 9//5 42//5 174//5 179//5
f 46//5 18//5 177//5 178//5
f 14//5 30//5 176//5 180//5
