# Blender v2.90.0 OBJ File: 'kAMER.blend'
# www.blender.org
mtllib tafel.mtl
o tafel_Cylinder
v -0.530735 1.265770 -3.440782
v -0.530735 1.400453 -3.440782
v -0.006656 1.265770 -3.389164
v -0.006656 1.400453 -3.389164
v 0.497284 1.265770 -3.236296
v 0.497284 1.400453 -3.236296
v 0.961717 1.265770 -2.988051
v 0.961717 1.400453 -2.988051
v 1.368797 1.265770 -2.653970
v 1.368797 1.400453 -2.653970
v 1.702878 1.265770 -2.246890
v 1.702878 1.400453 -2.246890
v 1.951123 1.265770 -1.782457
v 1.951123 1.400453 -1.782457
v 2.103991 1.265770 -1.278517
v 2.103991 1.400453 -1.278517
v 2.155609 1.265770 -0.754438
v 2.155609 1.400453 -0.754438
v 2.103992 1.265770 -0.230358
v 2.103992 1.400453 -0.230358
v 1.951123 1.265770 0.273581
v 1.951123 1.400453 0.273581
v 1.702878 1.265770 0.738015
v 1.702878 1.400453 0.738015
v 1.368797 1.265770 1.145094
v 1.368797 1.400453 1.145094
v 0.961717 1.265770 1.479176
v 0.961717 1.400453 1.479176
v 0.497283 1.265770 1.727421
v 0.497283 1.400453 1.727421
v -0.006656 1.265770 1.880289
v -0.006656 1.400453 1.880289
v -0.530736 1.265770 1.931906
v -0.530736 1.400453 1.931906
v -1.054816 1.265770 1.880289
v -1.054816 1.400453 1.880289
v -1.558756 1.265770 1.727420
v -1.558756 1.400453 1.727420
v -2.023190 1.265770 1.479175
v -2.023190 1.400453 1.479175
v -2.430269 1.265770 1.145093
v -2.430269 1.400453 1.145093
v -2.764350 1.265770 0.738014
v -2.764350 1.400453 0.738014
v -3.012594 1.265770 0.273580
v -3.012594 1.400453 0.273580
v -3.165462 1.265770 -0.230360
v -3.165462 1.400453 -0.230360
v -3.217079 1.265770 -0.754440
v -3.217079 1.400453 -0.754440
v -3.165462 1.265770 -1.278520
v -3.165462 1.400453 -1.278520
v -3.012592 1.265770 -1.782460
v -3.012592 1.400453 -1.782460
v -2.764347 1.265770 -2.246893
v -2.764347 1.400453 -2.246893
v -2.430265 1.265770 -2.653972
v -2.430265 1.400453 -2.653972
v -2.023185 1.265770 -2.988053
v -2.023185 1.400453 -2.988053
v -1.558751 1.265770 -3.236297
v -1.558751 1.400453 -3.236297
v -1.054811 1.265770 -3.389165
v -1.054811 1.400453 -3.389165
v -0.530735 1.099823 -1.340311
v -0.416437 1.099823 -1.329054
v -0.306531 1.099823 -1.295714
v -0.205242 1.099823 -1.241574
v -0.116461 1.099823 -1.168713
v -0.043600 1.099823 -1.079932
v 0.010541 1.099823 -0.978642
v 0.043880 1.099823 -0.868736
v 0.055138 1.099823 -0.754438
v 0.043880 1.099823 -0.640140
v 0.010541 1.099823 -0.530235
v -0.043600 1.099823 -0.428945
v -0.116461 1.099823 -0.340164
v -0.205242 1.099823 -0.267303
v -0.306531 1.099823 -0.213162
v -0.416437 1.099823 -0.179823
v -0.530735 1.099823 -0.168566
v -0.645033 1.099823 -0.179823
v -0.754939 1.099823 -0.213163
v -0.856229 1.099823 -0.267303
v -0.945010 1.099823 -0.340164
v -1.017871 1.099823 -0.428945
v -1.072011 1.099823 -0.530235
v -1.105350 1.099823 -0.640141
v -1.116608 1.099823 -0.754439
v -1.105350 1.099823 -0.868737
v -1.072011 1.099823 -0.978643
v -1.017870 1.099823 -1.079932
v -0.945009 1.099823 -1.168713
v -0.856228 1.099823 -1.241574
v -0.754938 1.099823 -1.295714
v -0.645032 1.099823 -1.329054
v -0.530735 1.099823 -1.340311
v -0.416437 1.099823 -1.329054
v -0.306531 1.099823 -1.295714
v -0.205242 1.099823 -1.241574
v -0.116461 1.099823 -1.168713
v -0.043600 1.099823 -1.079932
v 0.010541 1.099823 -0.978642
v 0.043880 1.099823 -0.868736
v 0.055138 1.099823 -0.754438
v 0.043880 1.099823 -0.640140
v 0.010541 1.099823 -0.530235
v -0.043600 1.099823 -0.428945
v -0.116461 1.099823 -0.340164
v -0.205242 1.099823 -0.267303
v -0.306531 1.099823 -0.213162
v -0.416437 1.099823 -0.179823
v -0.530735 1.099823 -0.168566
v -0.645033 1.099823 -0.179823
v -0.754939 1.099823 -0.213163
v -0.856229 1.099823 -0.267303
v -0.945010 1.099823 -0.340164
v -1.017871 1.099823 -0.428945
v -1.072011 1.099823 -0.530235
v -1.105350 1.099823 -0.640141
v -1.116608 1.099823 -0.754439
v -1.105350 1.099823 -0.868737
v -1.072011 1.099823 -0.978643
v -1.017870 1.099823 -1.079932
v -0.945009 1.099823 -1.168713
v -0.856228 1.099823 -1.241574
v -0.754938 1.099823 -1.295714
v -0.645032 1.099823 -1.329054
v -0.530735 -0.028005 -2.183240
v -0.251990 -0.028005 -2.155787
v 0.016044 -0.028005 -2.074479
v 0.263065 -0.028005 -1.942444
v 0.479581 -0.028005 -1.764754
v 0.657271 -0.028005 -1.548238
v 0.789306 -0.028005 -1.301217
v 0.870613 -0.028005 -1.033184
v 0.898067 -0.028005 -0.754438
v 0.870613 -0.028005 -0.475693
v 0.789306 -0.028005 -0.207659
v 0.657271 -0.028005 0.039362
v 0.479581 -0.028005 0.255878
v 0.263065 -0.028005 0.433568
v 0.016044 -0.028005 0.565603
v -0.251990 -0.028005 0.646911
v -0.530736 -0.028005 0.674365
v -0.809481 -0.028005 0.646910
v -1.077515 -0.028005 0.565603
v -1.324536 -0.028005 0.433567
v -1.541052 -0.028005 0.255877
v -1.718742 -0.028005 0.039361
v -1.850777 -0.028005 -0.207660
v -1.932084 -0.028005 -0.475694
v -1.959538 -0.028005 -0.754439
v -1.932083 -0.028005 -1.033185
v -1.850776 -0.028005 -1.301219
v -1.718740 -0.028005 -1.548240
v -1.541050 -0.028005 -1.764755
v -1.324534 -0.028005 -1.942445
v -1.077512 -0.028005 -2.074480
v -0.809479 -0.028005 -2.155787
v -0.530735 1.265770 -3.440782
v -0.530735 1.265770 -3.440782
v -0.006656 1.265770 -3.389164
v -0.006656 1.265770 -3.389164
v 0.497284 1.265770 -3.236296
v 0.497284 1.265770 -3.236296
v 0.961717 1.265770 -2.988051
v 0.961717 1.265770 -2.988051
v 1.368797 1.265770 -2.653970
v 1.368797 1.265770 -2.653970
v 1.702878 1.265770 -2.246890
v 1.702878 1.265770 -2.246890
v 1.951123 1.265770 -1.782457
v 1.951123 1.265770 -1.782457
v 2.103991 1.265770 -1.278517
v 2.103991 1.265770 -1.278517
v 2.155609 1.265770 -0.754438
v 2.155609 1.265770 -0.754438
v 2.103992 1.265770 -0.230358
v 2.103992 1.265770 -0.230358
v 1.951123 1.265770 0.273581
v 1.951123 1.265770 0.273581
v 1.702878 1.265770 0.738015
v 1.702878 1.265770 0.738015
v 1.368797 1.265770 1.145094
v 1.368797 1.265770 1.145094
v 0.961717 1.265770 1.479176
v 0.961717 1.265770 1.479176
v 0.497283 1.265770 1.727421
v 0.497283 1.265770 1.727421
v -0.006656 1.265770 1.880289
v -0.006656 1.265770 1.880289
v -0.530736 1.265770 1.931906
v -0.530736 1.265770 1.931906
v -1.054816 1.265770 1.880289
v -1.054816 1.265770 1.880289
v -1.558756 1.265770 1.727420
v -1.558756 1.265770 1.727420
v -2.023190 1.265770 1.479175
v -2.023190 1.265770 1.479175
v -2.430269 1.265770 1.145093
v -2.430269 1.265770 1.145093
v -2.764350 1.265770 0.738014
v -2.764350 1.265770 0.738014
v -3.012594 1.265770 0.273580
v -3.012594 1.265770 0.273580
v -3.165462 1.265770 -0.230360
v -3.165462 1.265770 -0.230360
v -3.217079 1.265770 -0.754440
v -3.217079 1.265770 -0.754440
v -3.165462 1.265770 -1.278520
v -3.165462 1.265770 -1.278520
v -3.012592 1.265770 -1.782460
v -3.012592 1.265770 -1.782460
v -2.764347 1.265770 -2.246893
v -2.764347 1.265770 -2.246893
v -2.430265 1.265770 -2.653972
v -2.430265 1.265770 -2.653972
v -2.023185 1.265770 -2.988053
v -2.023185 1.265770 -2.988053
v -1.558751 1.265770 -3.236297
v -1.558751 1.265770 -3.236297
v -1.054811 1.265770 -3.389165
v -1.054811 1.265770 -3.389165
vn 0.0000 0.0000 1.0000
vn 0.0000 1.0000 -0.0000
vn -0.7076 0.5968 0.3782
vn 0.0000 -1.0000 -0.0000
vn 0.7985 0.5968 0.0786
vn -0.7678 0.5968 0.2329
vn 0.7678 0.5968 0.2329
vn -0.7985 0.5968 0.0786
vn 0.7076 0.5968 0.3782
vn -0.7985 0.5968 -0.0786
vn 0.6203 0.5968 0.5090
vn -0.7678 0.5968 -0.2329
vn 0.5090 0.5968 0.6203
vn -0.7076 0.5968 -0.3782
vn 0.3782 0.5968 0.7076
vn 0.0786 0.5968 -0.7985
vn -0.6203 0.5968 -0.5090
vn 0.2329 0.5968 0.7678
vn 0.2329 0.5968 -0.7678
vn -0.5090 0.5968 -0.6203
vn 0.0786 0.5968 0.7985
vn 0.3782 0.5968 -0.7076
vn -0.3782 0.5968 -0.7076
vn -0.0786 0.5968 0.7985
vn 0.5090 0.5968 -0.6203
vn -0.2329 0.5968 -0.7678
vn -0.2329 0.5968 0.7678
vn 0.6203 0.5968 -0.5090
vn -0.0786 0.5968 -0.7985
vn -0.3782 0.5968 0.7076
vn 0.7076 0.5968 -0.3782
vn -0.5090 0.5968 0.6203
vn 0.7678 0.5968 -0.2329
vn -0.6203 0.5968 0.5090
vn 0.7985 0.5968 -0.0786
vn 0.0980 0.0000 -0.9952
vn -0.0078 -0.9969 -0.0788
vn 0.0078 -0.9969 -0.0788
vn 0.2903 0.0000 -0.9569
vn 0.0230 -0.9969 -0.0757
vn 0.4714 0.0000 -0.8819
vn 0.0373 -0.9969 -0.0698
vn 0.6344 0.0000 -0.7730
vn 0.0502 -0.9969 -0.0612
vn 0.7730 0.0000 -0.6344
vn 0.0612 -0.9969 -0.0502
vn 0.8819 0.0000 -0.4714
vn 0.0698 -0.9969 -0.0373
vn 0.9569 0.0000 -0.2903
vn 0.0757 -0.9969 -0.0230
vn 0.9952 0.0000 -0.0980
vn 0.0788 -0.9969 -0.0078
vn 0.9952 0.0000 0.0980
vn 0.0788 -0.9969 0.0078
vn 0.9569 0.0000 0.2903
vn 0.0757 -0.9969 0.0230
vn 0.8819 0.0000 0.4714
vn 0.0698 -0.9969 0.0373
vn 0.7730 0.0000 0.6344
vn 0.0612 -0.9969 0.0502
vn 0.6344 0.0000 0.7730
vn 0.0502 -0.9969 0.0612
vn 0.4714 0.0000 0.8819
vn 0.0373 -0.9969 0.0698
vn 0.2903 0.0000 0.9569
vn 0.0230 -0.9969 0.0757
vn 0.0980 0.0000 0.9952
vn 0.0078 -0.9969 0.0788
vn -0.0980 0.0000 0.9952
vn -0.0078 -0.9969 0.0788
vn -0.2903 0.0000 0.9569
vn -0.0230 -0.9969 0.0757
vn -0.4714 0.0000 0.8819
vn -0.0373 -0.9969 0.0698
vn -0.6344 0.0000 0.7730
vn -0.0502 -0.9969 0.0612
vn -0.7730 0.0000 0.6344
vn -0.0612 -0.9969 0.0502
vn -0.8819 0.0000 0.4714
vn -0.0698 -0.9969 0.0373
vn -0.9569 0.0000 0.2903
vn -0.0757 -0.9969 0.0230
vn -0.9952 0.0000 0.0980
vn -0.0788 -0.9969 0.0078
vn -0.9952 0.0000 -0.0980
vn -0.0788 -0.9969 -0.0078
vn -0.9569 0.0000 -0.2903
vn -0.0757 -0.9969 -0.0230
vn -0.8819 0.0000 -0.4714
vn -0.0698 -0.9969 -0.0373
vn -0.7730 0.0000 -0.6344
vn -0.0612 -0.9969 -0.0502
vn -0.6344 0.0000 -0.7730
vn -0.0502 -0.9969 -0.0612
vn -0.4714 0.0000 -0.8819
vn -0.0373 -0.9969 -0.0698
vn -0.2903 0.0000 -0.9569
vn -0.0230 -0.9969 -0.0757
vn -0.0980 0.0000 -0.9952
usemtl Tafel
s off
f 1//1 161//1 163//1 3//1
f 3//1 163//1 165//1 5//1
f 5//1 165//1 167//1 7//1
f 7//1 167//1 169//1 9//1
f 9//1 169//1 171//1 11//1
f 11//1 171//1 173//1 13//1
f 13//1 173//1 175//1 15//1
f 15//1 175//1 177//1 17//1
f 17//1 177//1 179//1 19//1
f 19//1 179//1 181//1 21//1
f 21//1 181//1 183//1 23//1
f 23//1 183//1 185//1 25//1
f 25//1 185//1 187//1 27//1
f 27//1 187//1 189//1 29//1
f 29//1 189//1 191//1 31//1
f 31//1 191//1 193//1 33//1
f 33//1 193//1 195//1 35//1
f 35//1 195//1 197//1 37//1
f 37//1 197//1 199//1 39//1
f 39//1 199//1 201//1 41//1
f 41//1 201//1 203//1 43//1
f 43//1 203//1 205//1 45//1
f 45//1 205//1 207//1 47//1
f 47//1 207//1 209//1 49//1
f 49//1 209//1 211//1 51//1
f 51//1 211//1 213//1 53//1
f 53//1 213//1 215//1 55//1
f 55//1 215//1 217//1 57//1
f 57//1 217//1 219//1 59//1
f 59//1 219//1 221//1 61//1
f 4//2 2//2 64//2 62//2 60//2 58//2 56//2 54//2 52//2 50//2 48//2 46//2 44//2 42//2 40//2 38//2 36//2 34//2 32//2 30//2 28//2 26//2 24//2 22//2 20//2 18//2 16//2 14//2 12//2 10//2 8//2 6//2
f 61//1 221//1 223//1 63//1
f 63//1 223//1 161//1 1//1
f 5//1 7//1 168//1 166//1
f 83//1 84//1 116//1 115//1
f 23//1 25//1 186//1 184//1
f 41//1 43//1 204//1 202//1
f 59//1 61//1 222//1 220//1
f 15//1 17//1 178//1 176//1
f 33//1 35//1 196//1 194//1
f 51//1 53//1 214//1 212//1
f 7//1 9//1 170//1 168//1
f 25//1 27//1 188//1 186//1
f 43//1 45//1 206//1 204//1
f 61//1 63//1 224//1 222//1
f 17//1 19//1 180//1 178//1
f 35//1 37//1 198//1 196//1
f 53//1 55//1 216//1 214//1
f 9//1 11//1 172//1 170//1
f 27//1 29//1 190//1 188//1
f 45//1 47//1 208//1 206//1
f 1//1 3//1 164//1 162//1
f 63//1 1//1 162//1 224//1
f 19//1 21//1 182//1 180//1
f 37//1 39//1 200//1 198//1
f 55//1 57//1 218//1 216//1
f 11//1 13//1 174//1 172//1
f 29//1 31//1 192//1 190//1
f 47//1 49//1 210//1 208//1
f 3//1 5//1 166//1 164//1
f 21//1 23//1 184//1 182//1
f 39//1 41//1 202//1 200//1
f 57//1 59//1 220//1 218//1
f 13//1 15//1 176//1 174//1
f 31//1 33//1 194//1 192//1
f 49//1 51//1 212//1 210//1
f 118//3 119//3 151//3 150//3
f 70//1 71//1 103//1 102//1
f 84//1 85//1 117//1 116//1
f 71//1 72//1 104//1 103//1
f 85//1 86//1 118//1 117//1
f 72//1 73//1 105//1 104//1
f 86//1 87//1 119//1 118//1
f 73//1 74//1 106//1 105//1
f 87//1 88//1 120//1 119//1
f 74//1 75//1 107//1 106//1
f 88//1 89//1 121//1 120//1
f 75//1 76//1 108//1 107//1
f 89//1 90//1 122//1 121//1
f 76//1 77//1 109//1 108//1
f 90//1 91//1 123//1 122//1
f 77//1 78//1 110//1 109//1
f 91//1 92//1 124//1 123//1
f 78//1 79//1 111//1 110//1
f 65//1 66//1 98//1 97//1
f 92//1 93//1 125//1 124//1
f 79//1 80//1 112//1 111//1
f 66//1 67//1 99//1 98//1
f 93//1 94//1 126//1 125//1
f 80//1 81//1 113//1 112//1
f 67//1 68//1 100//1 99//1
f 94//1 95//1 127//1 126//1
f 81//1 82//1 114//1 113//1
f 68//1 69//1 101//1 100//1
f 95//1 96//1 128//1 127//1
f 82//1 83//1 115//1 114//1
f 69//1 70//1 102//1 101//1
f 96//1 65//1 97//1 128//1
f 129//4 130//4 131//4 132//4 133//4 134//4 135//4 136//4 137//4 138//4 139//4 140//4 141//4 142//4 143//4 144//4 145//4 146//4 147//4 148//4 149//4 150//4 151//4 152//4 153//4 154//4 155//4 156//4 157//4 158//4 159//4 160//4
f 105//5 106//5 138//5 137//5
f 119//6 120//6 152//6 151//6
f 106//7 107//7 139//7 138//7
f 120//8 121//8 153//8 152//8
f 107//9 108//9 140//9 139//9
f 121//10 122//10 154//10 153//10
f 108//11 109//11 141//11 140//11
f 122//12 123//12 155//12 154//12
f 109//13 110//13 142//13 141//13
f 123//14 124//14 156//14 155//14
f 110//15 111//15 143//15 142//15
f 97//16 98//16 130//16 129//16
f 124//17 125//17 157//17 156//17
f 111//18 112//18 144//18 143//18
f 98//19 99//19 131//19 130//19
f 125//20 126//20 158//20 157//20
f 112//21 113//21 145//21 144//21
f 99//22 100//22 132//22 131//22
f 126//23 127//23 159//23 158//23
f 113//24 114//24 146//24 145//24
f 100//25 101//25 133//25 132//25
f 127//26 128//26 160//26 159//26
f 114//27 115//27 147//27 146//27
f 101//28 102//28 134//28 133//28
f 128//29 97//29 129//29 160//29
f 115//30 116//30 148//30 147//30
f 102//31 103//31 135//31 134//31
f 116//32 117//32 149//32 148//32
f 103//33 104//33 136//33 135//33
f 117//34 118//34 150//34 149//34
f 104//35 105//35 137//35 136//35
f 161//36 2//36 4//36 163//36
f 224//37 162//37 65//37 96//37
f 162//38 164//38 66//38 65//38
f 163//39 4//39 6//39 165//39
f 164//40 166//40 67//40 66//40
f 165//41 6//41 8//41 167//41
f 166//42 168//42 68//42 67//42
f 167//43 8//43 10//43 169//43
f 168//44 170//44 69//44 68//44
f 169//45 10//45 12//45 171//45
f 170//46 172//46 70//46 69//46
f 171//47 12//47 14//47 173//47
f 172//48 174//48 71//48 70//48
f 173//49 14//49 16//49 175//49
f 174//50 176//50 72//50 71//50
f 175//51 16//51 18//51 177//51
f 176//52 178//52 73//52 72//52
f 177//53 18//53 20//53 179//53
f 178//54 180//54 74//54 73//54
f 179//55 20//55 22//55 181//55
f 180//56 182//56 75//56 74//56
f 181//57 22//57 24//57 183//57
f 182//58 184//58 76//58 75//58
f 183//59 24//59 26//59 185//59
f 184//60 186//60 77//60 76//60
f 185//61 26//61 28//61 187//61
f 186//62 188//62 78//62 77//62
f 187//63 28//63 30//63 189//63
f 188//64 190//64 79//64 78//64
f 189//65 30//65 32//65 191//65
f 190//66 192//66 80//66 79//66
f 191//67 32//67 34//67 193//67
f 192//68 194//68 81//68 80//68
f 193//69 34//69 36//69 195//69
f 194//70 196//70 82//70 81//70
f 195//71 36//71 38//71 197//71
f 196//72 198//72 83//72 82//72
f 197//73 38//73 40//73 199//73
f 198//74 200//74 84//74 83//74
f 199//75 40//75 42//75 201//75
f 200//76 202//76 85//76 84//76
f 201//77 42//77 44//77 203//77
f 202//78 204//78 86//78 85//78
f 203//79 44//79 46//79 205//79
f 204//80 206//80 87//80 86//80
f 205//81 46//81 48//81 207//81
f 206//82 208//82 88//82 87//82
f 207//83 48//83 50//83 209//83
f 208//84 210//84 89//84 88//84
f 209//85 50//85 52//85 211//85
f 210//86 212//86 90//86 89//86
f 211//87 52//87 54//87 213//87
f 212//88 214//88 91//88 90//88
f 213//89 54//89 56//89 215//89
f 214//90 216//90 92//90 91//90
f 215//91 56//91 58//91 217//91
f 216//92 218//92 93//92 92//92
f 217//93 58//93 60//93 219//93
f 218//94 220//94 94//94 93//94
f 219//95 60//95 62//95 221//95
f 220//96 222//96 95//96 94//96
f 221//97 62//97 64//97 223//97
f 222//98 224//98 96//98 95//98
f 223//99 64//99 2//99 161//99
